<svg width="24" height="28" viewBox="0 0 24 28" fill="none" xmlns="http://www.w3.org/2000/svg">
<g clip-path="url(#clip0_523_708)">
<path d="M22.1538 5.79219L13.5692 0.692187C12.5538 0.0921875 11.2846 0.0921875 10.2462 0.692187L1.66154 5.79219C0.646154 6.39219 0 7.52296 0 8.74603V18.946C0 20.1691 0.623077 21.2768 1.66154 21.8999L10.2462 26.9999C10.7538 27.2999 11.3308 27.4614 11.9077 27.4614C12.4846 27.4614 13.0615 27.2999 13.5692 26.9999L22.1538 21.8999C23.1692 21.2999 23.8154 20.1691 23.8154 18.946V8.72296C23.8154 7.52296 23.1923 6.39219 22.1538 5.79219Z" fill="white"/>
<path d="M22.1538 5.79201L13.5692 0.692007C13.0615 0.392007 12.4846 0.230469 11.9077 0.230469C11.3308 0.230469 10.7538 0.392007 10.2462 0.692007L1.66154 5.79201C0.646154 6.39201 0 7.52278 0 8.74585V18.9459C0 20.1689 0.623077 21.2766 1.66154 21.8997L10.2462 26.9997C10.7538 27.2997 11.3308 27.4612 11.9077 27.4612C12.4846 27.4612 13.0615 27.2997 13.5692 26.9997L22.1538 21.8997C23.1692 21.2997 23.8154 20.1689 23.8154 18.9459V8.72278C23.8154 7.52278 23.1923 6.39201 22.1538 5.79201ZM10.5462 26.4459L1.96154 21.3459C1.13077 20.8382 0.6 19.9151 0.6 18.9228V8.72278C0.6 7.73047 1.13077 6.78431 1.96154 6.2997L10.5462 1.1997C10.9615 0.945853 11.4231 0.830468 11.9077 0.830468C12.3923 0.830468 12.8538 0.96893 13.2692 1.1997L21.8538 6.2997C22.5692 6.71508 23.0308 7.45355 23.1692 8.26124C22.8923 7.66124 22.2462 7.47662 21.4846 7.91508L13.3846 12.9459C12.3692 13.5459 11.6308 14.192 11.6308 15.4151V25.4305C11.6308 26.1689 11.9308 26.6305 12.3692 26.7689C12.2308 26.792 12.0692 26.8151 11.9077 26.8151C11.4462 26.8382 10.9615 26.6997 10.5462 26.4459Z" fill="#2A3238"/>
<path d="M19.9154 19.9149L17.7692 21.1841C17.7231 21.2072 17.6769 21.2534 17.6769 21.3226V21.8764C17.6769 21.9457 17.7231 21.9688 17.7692 21.9457L19.9384 20.6303C19.9846 20.6072 20.0077 20.538 20.0077 20.4688V19.9841C20.0077 19.9149 19.9615 19.8918 19.9154 19.9149Z" fill="#4DA925"/>
<path d="M15.3462 15.2076C15.4154 15.1614 15.4615 15.2076 15.4846 15.2999V16.0383C15.7846 15.9229 16.0615 15.8768 16.3154 15.946C16.3615 15.9691 16.3846 16.0383 16.3615 16.1076L16.2 16.7537C16.1769 16.7999 16.1539 16.846 16.1308 16.8922C16.1077 16.9153 16.1077 16.9153 16.0846 16.9153C16.0615 16.9153 16.0385 16.9383 16.0154 16.9153C15.9 16.8922 15.6462 16.8229 15.2308 17.0537C14.7923 17.2845 14.6308 17.6537 14.6539 17.9306C14.6539 18.2768 14.8385 18.3691 15.4154 18.3691C16.2 18.3922 16.5462 18.7383 16.5692 19.5229C16.5692 20.3076 16.1539 21.1614 15.5077 21.6691L15.5308 22.4076C15.5308 22.4999 15.4846 22.5922 15.4154 22.6383L14.9769 22.8922C14.9077 22.9383 14.8615 22.8922 14.8385 22.7999V22.0845C14.4692 22.246 14.1 22.2691 13.8462 22.1768C13.8 22.1537 13.7769 22.0845 13.8 22.0153L13.9615 21.346C13.9846 21.2999 14.0077 21.2306 14.0308 21.2076C14.0539 21.1845 14.0539 21.1845 14.0769 21.1845C14.1 21.1614 14.1231 21.1614 14.1462 21.1845C14.4 21.2768 14.7462 21.2306 15.0462 21.0691C15.4615 20.8614 15.7154 20.446 15.7154 20.0306C15.7154 19.6614 15.5077 19.4999 15.0231 19.4999C14.4 19.4999 13.8231 19.3845 13.8 18.4614C13.8 17.6999 14.1923 16.9153 14.8154 16.4306V15.6922C14.8154 15.5999 14.8615 15.5076 14.9308 15.4614L15.3462 15.2076Z" fill="white"/>
</g>
<defs>
<clipPath id="clip0_523_708">
<rect width="24" height="27.6923" fill="white"/>
</clipPath>
</defs>
</svg>
