<svg width="24" height="24" viewBox="0 0 24 24" fill="none" xmlns="http://www.w3.org/2000/svg">
<g clip-path="url(#clip0_523_706)">
<path d="M0 0H20.16C21.1784 0 22.1552 0.40457 22.8753 1.12471C23.5954 1.84485 24 2.82157 24 3.84V20.16C24 21.1784 23.5954 22.1552 22.8753 22.8753C22.1552 23.5954 21.1784 24 20.16 24H3.84C2.82157 24 1.84485 23.5954 1.12471 22.8753C0.40457 22.1552 0 21.1784 0 20.16L0 0Z" fill="#663399"/>
<path d="M8.59441 22.0799C7.05289 22.0784 6.10177 21.2103 6.12001 19.6129V15.5715C6.12001 14.7618 6.35713 14.1459 6.83137 13.7245C7.68313 12.9039 9.65929 12.854 10.4935 13.737C11.0076 14.1903 11.2015 15.1165 11.1554 15.9807H9.38617C9.39961 15.6411 9.38161 15.1268 9.18193 14.9331C8.92249 14.582 8.23729 14.6233 8.05609 14.9888C7.94473 15.1871 7.88905 15.4806 7.88905 15.8689V19.3772C7.88905 20.1128 8.14465 20.4848 8.65609 20.493C8.89513 20.493 9.07681 20.4061 9.20041 20.2326C9.37297 20.0267 9.39985 19.5707 9.38593 19.2409H11.1552C11.2762 20.9226 10.2835 22.1007 8.59417 22.0799H8.59441ZM14.2114 22.0799C12.5033 22.1034 11.7391 20.888 11.7864 19.2409H13.4566C13.4102 19.959 13.657 20.613 14.2483 20.5674C14.5121 20.5674 14.6978 20.4848 14.8051 20.3195C15.0091 20.0173 15.0473 19.1447 14.7557 18.807C14.5519 18.4818 13.819 18.1947 13.4318 18.0013C12.8791 17.7368 12.4812 17.4229 12.2378 17.0591C11.689 16.2517 11.7398 14.4795 12.51 13.7615C13.2583 12.8754 15.2126 12.8346 15.9617 13.743C16.4237 14.2112 16.6255 15.1326 16.5864 15.9805H14.9779C14.9916 15.632 14.9587 15.0697 14.8234 14.8647C14.7286 14.6912 14.549 14.6043 14.2853 14.6043C13.8151 14.6043 13.5802 14.8854 13.5802 15.4472C13.5852 16.0439 13.8178 16.2887 14.3597 16.538C15.0614 16.8107 15.9538 17.2763 16.2773 17.8398C17.2421 19.5567 16.5802 22.1795 14.2111 22.0794L14.2114 22.0799ZM19.6056 22.0799C17.8975 22.1034 17.1334 20.888 17.1806 19.2409H18.8508C18.8045 19.959 19.0512 20.613 19.6426 20.5674C19.9063 20.5674 20.0921 20.4848 20.1994 20.3195C20.4034 20.0173 20.4415 19.1447 20.1499 18.807C19.9462 18.4818 19.2132 18.1947 18.8261 18.0013C18.2734 17.7368 17.8754 17.4229 17.6321 17.0591C17.0832 16.2517 17.1341 14.4795 17.9042 13.7615C18.6526 12.8754 20.6069 12.8346 21.3559 13.743C21.8179 14.2112 22.0198 15.1326 21.9806 15.9805H20.3722C20.3858 15.632 20.353 15.0697 20.2176 14.8647C20.1228 14.6912 19.9433 14.6043 19.6795 14.6043C19.2094 14.6043 18.9744 14.8854 18.9744 15.4472C18.9794 16.0439 19.212 16.2887 19.7539 16.538C20.4557 16.8107 21.348 17.2763 21.6715 17.8398C22.6363 19.5567 21.9744 22.1795 19.6054 22.0794L19.6056 22.0799Z" fill="white"/>
</g>
<defs>
<clipPath id="clip0_523_706">
<rect width="24" height="24" fill="white"/>
</clipPath>
</defs>
</svg>
