<svg width="24" height="24" viewBox="0 0 24 24" fill="none" xmlns="http://www.w3.org/2000/svg">
<g clip-path="url(#clip0_523_729)">
<path d="M8.43453 9.52829C9.40447 9.52829 10.1927 10.0462 10.5968 10.9454L10.6272 11.0163L12.2539 10.4632L12.2211 10.3797C11.592 8.84373 10.1397 7.8916 8.43453 7.8916C7.23453 7.8916 6.25953 8.27541 5.45384 9.0661C4.65303 9.85173 4.24878 10.8395 4.24878 12.0014C4.24878 13.1559 4.65565 14.1384 5.45384 14.9215C6.25953 15.7122 7.23472 16.096 8.43453 16.096C10.1397 16.096 11.5896 15.1413 12.2211 13.6079L12.2539 13.5247L10.6245 12.9715L10.5968 13.0447C10.233 13.9314 9.42472 14.4592 8.43453 14.4592C7.76009 14.4592 7.18915 14.2242 6.73953 13.7594C6.28222 13.2897 6.05234 12.6961 6.05234 12.0014C6.05234 11.3017 6.27734 10.7208 6.73953 10.228C7.19159 9.76323 7.76009 9.52829 8.43453 9.52829Z" fill="black"/>
<path d="M15.4973 23.4616L15.0124 21.8626C19.3875 20.534 22.3277 16.5706 22.3277 12.0011C22.3277 10.7405 22.1029 9.50788 21.6583 8.3407L23.2195 7.74707C23.7376 9.10625 24.0022 10.5489 24 12.0035C23.9976 17.3107 20.5823 21.9157 15.4973 23.4616Z" fill="url(#paint0_linear_523_729)"/>
<path d="M21.8756 8.98038C20.5393 4.62045 16.5709 1.69263 11.9987 1.69263C11.3787 1.69273 10.76 1.74769 10.1498 1.85688L9.85406 0.212508C10.5619 0.0851999 11.2795 0.0209479 11.9987 0.0205078C17.3085 0.0205078 21.9186 3.42307 23.472 8.48782L21.8756 8.98038Z" fill="#69D3A7"/>
<path d="M0.768 16.2252C0.257625 14.8763 0 13.4541 0 12.0017C0 5.81293 4.6455 0.68743 10.8064 0.0810547L10.9706 1.74324C5.6685 2.26637 1.66969 6.67674 1.66969 12.0016C1.6681 13.2431 1.89145 14.4747 2.32894 15.6366L0.768 16.2252Z" fill="url(#paint1_linear_523_729)"/>
<path d="M12.0619 8.04316L15.3356 16.0558L12.951 21.8402L14.6207 22.1737L20.4257 8.04297H18.622L16.3058 13.9136L13.9716 8.04297L12.0619 8.04316Z" fill="black"/>
<path d="M13.2515 21.1127L12.9005 21.964C12.8197 22.1586 12.6352 22.2925 12.428 22.3C12.2842 22.305 12.1427 22.3101 11.9962 22.3101C7.41147 22.3101 3.32922 19.2409 2.06885 14.8457L0.462158 15.3053C1.92728 20.4105 6.66878 23.9771 11.9936 23.9798H11.9962C12.1629 23.9798 12.3296 23.9773 12.4963 23.9696C13.3526 23.9344 14.1182 23.3963 14.4463 22.6005L14.9214 21.4463L13.2515 21.1127Z" fill="url(#paint2_linear_523_729)"/>
</g>
<defs>
<linearGradient id="paint0_linear_523_729" x1="24.9187" y1="12.0767" x2="14.2054" y2="19.0131" gradientUnits="userSpaceOnUse">
<stop offset="0.081" stop-color="#69D3A7"/>
<stop offset="1" stop-color="#69D3A7" stop-opacity="0"/>
</linearGradient>
<linearGradient id="paint1_linear_523_729" x1="8.00443" y1="0.172178" x2="1.27395" y2="14.4468" gradientUnits="userSpaceOnUse">
<stop stop-color="#69D3A7"/>
<stop offset="0.823" stop-color="#2AB586"/>
<stop offset="1" stop-color="#1CAE7F"/>
</linearGradient>
<linearGradient id="paint2_linear_523_729" x1="-0.017064" y1="17.4863" x2="17.6312" y2="23.025" gradientUnits="userSpaceOnUse">
<stop offset="0.077" stop-color="#1CAE7F"/>
<stop offset="0.164" stop-color="#1CA379"/>
<stop offset="0.316" stop-color="#1C8568"/>
<stop offset="0.516" stop-color="#1B554D"/>
<stop offset="0.719" stop-color="#1B1E2E"/>
</linearGradient>
<clipPath id="clip0_523_729">
<rect width="24" height="24" fill="white"/>
</clipPath>
</defs>
</svg>
