<svg width="24" height="24" viewBox="0 0 24 24" fill="none" xmlns="http://www.w3.org/2000/svg">
<g clip-path="url(#clip0_521_789)">
<path d="M4.10547 4.10547V16.8951C4.10547 18.1618 4.26435 18.4723 4.89507 19.1055L9.78963 24H19.7371V19.7367L4.10547 4.10547Z" fill="#40C4FF"/>
<path d="M4.10547 16.8946C4.10547 18.1613 4.26435 18.4719 4.89507 19.105L5.52675 19.7367H19.7371L4.10547 4.10547V16.8946Z" fill="#29B6F6"/>
<path d="M4.10544 4.10547L0.31584 12C0.18048 12.2871 0 12.7863 0 13.1055C0 13.7947 0.30336 14.5003 0.7896 15L4.89504 19.1055C4.26432 18.4723 4.10544 18.1613 4.10544 16.8951V4.10547Z" fill="#01579B"/>
<path d="M5.0525 19.2634C4.42178 18.6303 4.2629 18.3192 4.2629 17.053V4.26339L4.10498 4.10547V16.8951C4.10498 18.1618 4.26386 18.4723 4.89458 19.1055L5.52626 19.7371L5.0525 19.2634Z" fill="#55C5F8"/>
<path d="M16.7367 4.10547H4.10547L19.7371 19.7371H24V9.94755L18.9475 4.89459C18.2376 4.18227 17.6074 4.10547 16.7367 4.10547Z" fill="#01579B"/>
<path d="M18.9475 4.89456L14.8421 0.78912C14.4835 0.4296 13.7367 0 13.1055 0C12.5626 0 12.0298 0.10848 11.6847 0.31584L4.10547 4.10544H16.7371C17.6074 4.10544 18.2376 4.18224 18.9475 4.89456Z" fill="#40C4FF"/>
<path d="M23.8421 9.79004V19.5792H19.5787L19.7367 19.7371H24V9.94796L23.8421 9.79004Z" fill="#075087"/>
<path d="M18.9475 4.89409C18.1647 4.11121 17.5229 4.10449 16.5792 4.10449H4.10547L4.26339 4.26241H16.5792C17.0506 4.26289 18.2395 4.18369 18.9475 4.89409Z" fill="#3379AE"/>
</g>
<defs>
<clipPath id="clip0_521_789">
<rect width="24" height="24" fill="white"/>
</clipPath>
</defs>
</svg>
