<svg width="24" height="24" viewBox="0 0 24 24" fill="none" xmlns="http://www.w3.org/2000/svg">
<g clip-path="url(#clip0_521_752)">
<path d="M21.375 0H2.625C1.17525 0 0 1.17525 0 2.625V21.375C0 22.8247 1.17525 24 2.625 24H21.375C22.8247 24 24 22.8247 24 21.375V2.625C24 1.17525 22.8247 0 21.375 0Z" fill="#092E20"/>
<path d="M17.4728 8.83146V15.0402C17.4728 17.1795 17.3163 18.2055 16.8468 19.0926C16.4119 19.9449 15.8379 20.4839 14.6553 21.0753L12.1683 19.8926C13.3509 19.3361 13.9248 18.8493 14.29 18.1012C14.6727 17.336 14.7946 16.449 14.7946 14.1185V8.83146H17.4728ZM13.212 4.69531V17.0926C11.8381 17.3535 10.8293 17.4579 9.7337 17.4579C6.46394 17.4579 4.75955 15.9797 4.75955 13.1447C4.75955 10.4141 6.56839 8.64028 9.36839 8.64028C9.80315 8.64028 10.1336 8.67495 10.5337 8.77929V4.69531H13.212ZM9.62936 10.7967C8.27278 10.7967 7.49009 11.6316 7.49009 13.0924C7.49009 14.5186 8.238 15.3012 9.61197 15.3012C9.90749 15.3012 10.1511 15.2838 10.5337 15.2317V10.9357C10.2206 10.8315 9.95978 10.7967 9.62936 10.7967ZM17.4728 4.70956V7.45749H14.7946V4.70956H17.4728Z" fill="#FFFFFD"/>
</g>
<defs>
<clipPath id="clip0_521_752">
<rect width="24" height="24" fill="white"/>
</clipPath>
</defs>
</svg>
