<svg width="24" height="36" viewBox="0 0 24 36" fill="none" xmlns="http://www.w3.org/2000/svg">
<g clip-path="url(#clip0_523_1229)">
<path d="M6 35.7207C9.32093 35.7207 12 33.0416 12 29.7207V23.7207H6C2.67907 23.7207 0 26.3998 0 29.7207C0 33.0416 2.67907 35.7207 6 35.7207Z" fill="#0ACF83"/>
<path d="M0 17.7207C0 14.3998 2.67907 11.7207 6 11.7207H12V23.7207H6C2.67907 23.7207 0 21.0416 0 17.7207Z" fill="#A259FF"/>
<path d="M0 5.7207C0 2.39977 2.67907 -0.279297 6 -0.279297H12V11.7207H6C2.67907 11.7207 0 9.04163 0 5.7207Z" fill="#F24E1E"/>
<path d="M12 -0.279297H18C21.3209 -0.279297 24 2.39977 24 5.7207C24 9.04163 21.3209 11.7207 18 11.7207H12V-0.279297Z" fill="#FF7262"/>
<path d="M24 17.7207C24 21.0416 21.3209 23.7207 18 23.7207C14.6791 23.7207 12 21.0416 12 17.7207C12 14.3998 14.6791 11.7207 18 11.7207C21.3209 11.7207 24 14.3998 24 17.7207Z" fill="#1ABCFE"/>
</g>
<defs>
<clipPath id="clip0_523_1229">
<rect width="24" height="35.7209" fill="white"/>
</clipPath>
</defs>
</svg>
