<svg width="24" height="33" viewBox="0 0 24 33" fill="none" xmlns="http://www.w3.org/2000/svg">
<g clip-path="url(#clip0_523_1223)">
<path d="M0.121033 26.3687L4.14359 0.628992C4.16768 0.475164 4.23949 0.332793 4.34888 0.221987C4.45826 0.111182 4.5997 0.0375414 4.7532 0.0114683C4.90671 -0.0146049 5.06452 0.00820667 5.20436 0.076681C5.3442 0.145155 5.45899 0.255831 5.53252 0.393077L9.69269 8.15223L11.3507 4.99495C11.4138 4.87519 11.5083 4.77492 11.6242 4.70498C11.7401 4.63503 11.8728 4.59806 12.0082 4.59806C12.1435 4.59806 12.2763 4.63503 12.3922 4.70498C12.508 4.77492 12.6026 4.87519 12.6656 4.99495L23.892 26.3687H0.121033Z" fill="#FFA000"/>
<path d="M14.0178 16.3421L9.69065 8.14844L0.121033 26.3688L14.0178 16.3421Z" fill="#F57C00"/>
<path d="M23.892 26.3686L20.8111 7.30343C20.7882 7.16907 20.7289 7.04357 20.6396 6.94064C20.5502 6.83771 20.4343 6.7613 20.3045 6.71977C20.1747 6.6783 20.036 6.67337 19.9036 6.70553C19.7712 6.73768 19.6502 6.80568 19.5539 6.90207L0.121033 26.3684L10.8738 32.3985C11.2059 32.5839 11.5799 32.6812 11.9602 32.6812C12.3405 32.6812 12.7145 32.5839 13.0466 32.3985L23.892 26.3686Z" fill="#FFCA28"/>
<path d="M20.811 7.30358C20.7882 7.16922 20.7288 7.04372 20.6395 6.94079C20.5502 6.83786 20.4343 6.76146 20.3045 6.71992C20.1747 6.67842 20.036 6.67345 19.9036 6.70556C19.7712 6.73768 19.6502 6.80563 19.5538 6.90197L15.6967 10.7693L12.6638 4.99499C12.6008 4.87523 12.5062 4.77496 12.3903 4.70502C12.2745 4.63507 12.1417 4.5981 12.0064 4.5981C11.871 4.5981 11.7382 4.63507 11.6224 4.70502C11.5065 4.77496 11.412 4.87523 11.3489 4.99499L9.69086 8.15201L5.53069 0.393115C5.45707 0.25568 5.34208 0.144888 5.202 0.0764296C5.06192 0.00797081 4.90385 -0.0146859 4.75018 0.0116679C4.59657 0.037905 4.45512 0.111827 4.34587 0.222955C4.23662 0.334084 4.16512 0.47678 4.1415 0.630817L0.120993 26.3688H0.107971L0.120737 26.3836L0.226695 26.4357L19.5482 7.09167C19.6446 6.99489 19.7658 6.92653 19.8984 6.89412C20.0311 6.86171 20.1701 6.86649 20.3003 6.90794C20.4304 6.94939 20.5466 7.0259 20.636 7.12908C20.7255 7.23225 20.7848 7.35809 20.8075 7.49277L23.8624 26.3872L23.892 26.3685L20.811 7.30358ZM0.156226 26.3335L4.14329 0.812859C4.16698 0.658786 4.23853 0.516066 4.34782 0.404904C4.4571 0.293741 4.59858 0.219768 4.75223 0.193455C4.90592 0.167163 5.06399 0.189876 5.20407 0.258378C5.34414 0.32688 5.45912 0.437702 5.53274 0.575157L9.6924 8.33431L11.3507 5.17703C11.4137 5.05727 11.5083 4.957 11.6242 4.88706C11.74 4.81711 11.8728 4.78015 12.0081 4.78015C12.1435 4.78015 12.2763 4.81711 12.3921 4.88706C12.508 4.957 12.6025 5.05727 12.6656 5.17703L15.637 10.8285L0.155716 26.3335H0.156226Z" fill="white" fill-opacity="0.2"/>
<path opacity="0.2" d="M13.0465 32.2159C12.7145 32.4013 12.3405 32.4987 11.9601 32.4987C11.5798 32.4987 11.2058 32.4013 10.8738 32.2159L0.146526 26.2031L0.120483 26.3683L10.8733 32.3964C11.2053 32.5818 11.5793 32.6792 11.9596 32.6792C12.34 32.6792 12.7139 32.5818 13.046 32.3964L23.892 26.3683L23.8639 26.1973L13.046 32.2164L13.0465 32.2159Z" fill="#A52714"/>
</g>
<defs>
<clipPath id="clip0_523_1223">
<rect width="24" height="32.6809" fill="white"/>
</clipPath>
</defs>
</svg>
