<svg viewBox="0 0 24 24" fill="none" xmlns="http://www.w3.org/2000/svg">
<path d="M9.56363 12.2123C9.798 12.4466 10.1779 12.4466 10.4123 12.2123L10.8364 11.7881C11.0708 11.5538 11.0708 11.1739 10.8364 10.9395L9.49688 9.60039L10.836 8.26089C11.0704 8.02652 11.0704 7.64664 10.836 7.41227L10.4119 6.98814C10.1775 6.75377 9.79763 6.75377 9.56325 6.98814L7.3755 9.17589C7.14113 9.41027 7.14113 9.79014 7.3755 10.0245L9.56363 12.2123ZM13.164 11.7885L13.5881 12.2126C13.8225 12.447 14.2024 12.447 14.4368 12.2126L16.6245 10.0249C16.8589 9.79052 16.8589 9.41064 16.6245 9.17627L14.4368 6.98852C14.2024 6.75414 13.8225 6.75414 13.5881 6.98852L13.164 7.41264C12.9296 7.64702 12.9296 8.02689 13.164 8.26127L14.5031 9.60039L13.164 10.9399C12.9296 11.1743 12.9296 11.5541 13.164 11.7885ZM23.4 18.0004H14.3078C14.28 18.7433 13.7561 19.2004 13.08 19.2004H10.8C10.0991 19.2004 9.56175 18.5453 9.57113 18.0004H0.6C0.27 18.0004 0 18.2704 0 18.6004V19.2004C0 20.5204 1.08 21.6004 2.4 21.6004H21.6C22.92 21.6004 24 20.5204 24 19.2004V18.6004C24 18.2704 23.73 18.0004 23.4 18.0004ZM21.6 4.20039C21.6 3.21039 20.79 2.40039 19.8 2.40039H4.2C3.21 2.40039 2.4 3.21039 2.4 4.20039V16.8004H21.6V4.20039ZM19.2 14.4004H4.8V4.80039H19.2V14.4004Z" fill="#24344B"/>
</svg>
