<svg width="24" height="24" viewBox="0 0 24 24" fill="none" xmlns="http://www.w3.org/2000/svg">
<g clip-path="url(#clip0_523_1220)">
<path d="M4.99988 0C2.24437 0 0 2.24437 0 4.99988C0 7.413 1.72144 9.43444 4.00012 9.89925V16.9999C4.00012 19.2068 5.81512 21 7.99988 21H8.03644C8.28056 22.6918 9.74269 24 11.5001 24C13.4272 24 15 22.4272 15 20.5001C15 18.573 13.4272 16.9999 11.5001 16.9999C9.74288 16.9999 8.28075 18.3081 8.03644 19.9999H7.99988C6.36169 19.9999 4.99988 18.6589 4.99988 16.9999V11.9586C5.32347 12.2887 5.70974 12.5509 6.13604 12.7298C6.56234 12.9087 7.02007 13.0006 7.48237 13.0001H8.03644C8.28075 14.6919 9.74269 16.0001 11.5001 16.0001C13.2574 16.0001 14.7193 14.6919 14.9633 13.0001H17.0364C17.2808 14.6919 18.7427 16.0001 20.5001 16.0001C22.4272 16.0001 24 14.427 24 12.4999C24 10.5728 22.4272 9 20.5001 9C18.7427 9 17.2806 10.3082 17.0364 12H14.9634C14.7195 10.3082 13.2576 9 11.5001 9C9.74269 9 8.28056 10.3082 8.03644 12H7.48237C6.27619 12 5.27119 11.1396 5.04712 9.999C7.78087 9.9735 10.0001 7.73962 10.0001 4.99988C10.0001 2.24437 7.75537 0 4.99988 0ZM4.99988 1.00013C5.52544 0.999087 6.04604 1.10183 6.5318 1.30247C7.01756 1.5031 7.45892 1.79767 7.83057 2.16929C8.20222 2.5409 8.49683 2.98224 8.69751 3.46798C8.89819 3.95372 9.00099 4.47431 9 4.99988C9.00099 5.52546 8.8982 6.04606 8.69752 6.53183C8.49685 7.01759 8.20224 7.45895 7.83059 7.83059C7.45895 8.20224 7.01759 8.49685 6.53183 8.69752C6.04606 8.8982 5.52546 9.00099 4.99988 9C4.47431 9.00099 3.95372 8.89819 3.46798 8.69751C2.98224 8.49683 2.5409 8.20222 2.16929 7.83057C1.79767 7.45892 1.5031 7.01756 1.30247 6.5318C1.10183 6.04604 0.999087 5.52544 1.00013 4.99988C0.999087 4.47433 1.10184 3.95375 1.30247 3.46801C1.50311 2.98227 1.79769 2.54093 2.16931 2.16931C2.54093 1.79769 2.98227 1.50311 3.46801 1.30247C3.95375 1.10184 4.47433 0.999087 4.99988 1.00013ZM4.02206 2.41406C3.50063 2.41669 3 2.83556 3 3.40613V6.60169C3 7.35975 3.88294 7.851 4.52719 7.45162L7.08356 5.86631C7.69425 5.48756 7.69744 4.55344 7.08956 4.17037L4.533 2.55975C4.38019 2.46317 4.20283 2.41259 4.02206 2.41406ZM4.00012 3.40613L6.55669 5.01638L4.00012 6.60169V3.40613ZM11.5001 10.0001C11.8287 9.99908 12.1542 10.063 12.458 10.1883C12.7617 10.3135 13.0377 10.4976 13.27 10.73C13.5024 10.9623 13.6865 11.2383 13.8117 11.542C13.937 11.8458 14.0009 12.1713 13.9999 12.4999C14.0009 12.8284 13.9369 13.154 13.8117 13.4577C13.6864 13.7615 13.5023 14.0375 13.27 14.2699C13.0377 14.5022 12.7617 14.6863 12.458 14.8116C12.1542 14.937 11.8287 15.001 11.5001 15C11.1715 15.001 10.846 14.937 10.5422 14.8117C10.2384 14.6864 9.96242 14.5023 9.73006 14.2699C9.49771 14.0376 9.31359 13.7616 9.18829 13.4578C9.063 13.154 8.99901 12.8285 9 12.4999C8.99903 12.1713 9.06305 11.8458 9.18835 11.542C9.31366 11.2383 9.49778 10.9623 9.73014 10.73C9.96249 10.4977 10.2385 10.3136 10.5423 10.1883C10.846 10.0631 11.1716 9.99911 11.5001 10.0001ZM20.5001 10.0001C20.8287 9.99908 21.1542 10.063 21.458 10.1883C21.7617 10.3135 22.0377 10.4976 22.27 10.73C22.5024 10.9623 22.6865 11.2383 22.8117 11.542C22.937 11.8458 23.0009 12.1713 22.9999 12.4999C23.0009 12.8284 22.9369 13.154 22.8117 13.4577C22.6864 13.7615 22.5023 14.0375 22.27 14.2699C22.0377 14.5022 21.7617 14.6863 21.458 14.8116C21.1542 14.937 20.8287 15.001 20.5001 15C20.1715 15.001 19.846 14.937 19.5422 14.8117C19.2384 14.6864 18.9624 14.5023 18.7301 14.2699C18.4977 14.0376 18.3136 13.7616 18.1883 13.4578C18.063 13.154 17.999 12.8285 18 12.4999C17.999 12.1713 18.063 11.8458 18.1884 11.542C18.3137 11.2383 18.4978 10.9623 18.7301 10.73C18.9625 10.4977 19.2385 10.3136 19.5423 10.1883C19.846 10.0631 20.1716 9.99911 20.5001 10.0001ZM12.5186 11.3034C12.4529 11.3034 12.3879 11.3163 12.3272 11.3414C12.2665 11.3665 12.2113 11.4033 12.1648 11.4497L10.9836 12.6298L10.5911 12.2391C10.4972 12.1455 10.37 12.093 10.2374 12.0932C10.1048 12.0934 9.97769 12.1463 9.88406 12.2402C9.83772 12.2867 9.80099 12.3419 9.77599 12.4027C9.75098 12.4634 9.73818 12.5284 9.73832 12.5941C9.73846 12.6598 9.75153 12.7248 9.7768 12.7854C9.80206 12.846 9.83902 12.9011 9.88556 12.9474L10.6307 13.6899C10.7244 13.7834 10.8514 13.8358 10.9838 13.8358C11.1162 13.8357 11.2431 13.7832 11.3368 13.6898L12.8715 12.1571C12.918 12.1107 12.9548 12.0556 12.98 11.9949C13.0052 11.9343 13.0181 11.8693 13.0182 11.8036C13.0182 11.7379 13.0053 11.6729 12.9802 11.6122C12.9551 11.5515 12.9183 11.4963 12.8719 11.4499C12.7781 11.3563 12.6511 11.3035 12.5186 11.3034ZM21.5186 11.3034C21.4529 11.3034 21.3879 11.3163 21.3272 11.3414C21.2665 11.3665 21.2113 11.4033 21.1648 11.4497L19.9836 12.6298L19.5911 12.2391C19.4972 12.1455 19.37 12.093 19.2374 12.0932C19.1048 12.0934 18.9777 12.1463 18.8841 12.2402C18.8377 12.2867 18.801 12.3419 18.776 12.4027C18.751 12.4634 18.7382 12.5284 18.7383 12.5941C18.7385 12.6598 18.7515 12.7248 18.7768 12.7854C18.8021 12.846 18.839 12.9011 18.8856 12.9474L19.6307 13.6899C19.7244 13.7834 19.8514 13.8358 19.9838 13.8358C20.1162 13.8357 20.2431 13.7832 20.3368 13.6898L21.8715 12.1571C21.918 12.1107 21.9548 12.0556 21.98 11.9949C22.0052 11.9343 22.0181 11.8693 22.0182 11.8036C22.0182 11.7379 22.0053 11.6729 21.9802 11.6122C21.9551 11.5515 21.9183 11.4963 21.8719 11.4499C21.7781 11.3563 21.6511 11.3035 21.5186 11.3034ZM11.5001 18C11.8287 17.999 12.1542 18.063 12.458 18.1884C12.7617 18.3137 13.0377 18.4978 13.27 18.7301C13.5023 18.9625 13.6864 19.2385 13.8117 19.5423C13.9369 19.846 14.0009 20.1716 13.9999 20.5001C14.0009 20.8287 13.937 21.1542 13.8117 21.458C13.6865 21.7617 13.5024 22.0377 13.27 22.27C13.0377 22.5024 12.7617 22.6865 12.458 22.8117C12.1542 22.937 11.8287 23.0009 11.5001 22.9999C11.1716 23.0009 10.846 22.9369 10.5423 22.8117C10.2385 22.6864 9.96249 22.5023 9.73014 22.27C9.49778 22.0377 9.31366 21.7617 9.18835 21.458C9.06305 21.1542 8.99903 20.8287 9 20.5001C8.99901 20.1715 9.063 19.846 9.18829 19.5422C9.31359 19.2384 9.49771 18.9624 9.73006 18.7301C9.96242 18.4977 10.2384 18.3136 10.5422 18.1883C10.846 18.063 11.1715 17.999 11.5001 18ZM10.5 19.7501C10.0888 19.7501 9.75 20.0889 9.75 20.5001C9.75 20.9117 10.089 21.2501 10.5 21.2501C10.911 21.2501 11.25 20.9117 11.25 20.5001C11.25 20.0889 10.9112 19.7501 10.5 19.7501ZM12.4999 19.7501C12.0887 19.7501 11.7499 20.0889 11.7499 20.5001C11.7499 20.9117 12.0889 21.2501 12.4999 21.2501C12.9109 21.2501 13.2499 20.9117 13.2499 20.5001C13.2499 20.0889 12.9111 19.7501 12.4999 19.7501ZM10.5 20.25C10.6406 20.25 10.7501 20.3597 10.7501 20.5001C10.7501 20.6413 10.6408 20.7499 10.5 20.7499C10.3594 20.7499 10.2499 20.6411 10.2499 20.5001C10.2499 20.3595 10.3596 20.25 10.5 20.25ZM12.4999 20.25C12.6405 20.25 12.75 20.3597 12.75 20.5001C12.75 20.6413 12.6407 20.7499 12.4999 20.7499C12.3593 20.7499 12.2501 20.6411 12.2501 20.5001C12.2501 20.3595 12.3594 20.25 12.4999 20.25Z" fill="#2088FF"/>
<path d="M20.5001 17C18.7408 17 17.2774 18.3112 17.0357 20.0058C17.0192 20.0043 17.0026 20.0036 16.986 20.0037L16.4798 20.0206C16.3473 20.025 16.2219 20.0818 16.1313 20.1785C16.0407 20.2752 15.9921 20.404 15.9964 20.5364C16.0007 20.669 16.0575 20.7943 16.1543 20.885C16.2511 20.9756 16.3799 21.0241 16.5124 21.0198L17.0186 21.0035C17.0247 21.0032 17.0308 21.0029 17.0368 21.0024C17.2819 22.6931 18.7434 24.0001 20.5001 24.0001C22.4273 24.0001 24 22.4274 24 20.5002C24 18.5731 22.4273 17 20.5001 17ZM20.5001 18.0001C20.8287 17.9992 21.1542 18.0632 21.458 18.1885C21.7617 18.3138 22.0377 18.4979 22.27 18.7303C22.5023 18.9626 22.6864 19.2386 22.8117 19.5424C22.9369 19.8461 23.0009 20.1717 22.9999 20.5002C23.0009 20.8288 22.937 21.1543 22.8117 21.4581C22.6865 21.7618 22.5024 22.0378 22.27 22.2702C22.0377 22.5025 21.7617 22.6866 21.458 22.8118C21.1542 22.9371 20.8287 23.001 20.5001 23C20.1716 23.001 19.846 22.9371 19.5423 22.8118C19.2385 22.6865 18.9625 22.5024 18.7301 22.2701C18.4978 22.0378 18.3137 21.7618 18.1884 21.4581C18.0631 21.1543 17.999 20.8288 18 20.5002C17.999 20.1717 18.063 19.8461 18.1883 19.5423C18.3136 19.2385 18.4977 18.9625 18.7301 18.7302C18.9624 18.4978 19.2384 18.3137 19.5422 18.1884C19.846 18.0631 20.1715 17.9991 20.5001 18.0001Z" fill="#79B8FF"/>
</g>
<defs>
<clipPath id="clip0_523_1220">
<rect width="24" height="24" fill="white"/>
</clipPath>
</defs>
</svg>
