<svg width="24" height="24" viewBox="0 0 24 24" fill="none" xmlns="http://www.w3.org/2000/svg">
<g clip-path="url(#clip0_523_1221)">
<path d="M23.5724 9.59665L23.5387 9.51055L20.28 1.00617C20.2137 0.839452 20.0962 0.698024 19.9446 0.602168C19.7928 0.507944 19.6158 0.462552 19.4375 0.472124C19.2591 0.481695 19.088 0.545769 18.9472 0.655692C18.808 0.768762 18.707 0.922009 18.6581 1.09455L16.4579 7.82636H7.54837L5.34799 1.09455C5.30025 0.921137 5.19908 0.767179 5.05885 0.654549C4.91807 0.544626 4.74695 0.480552 4.5686 0.470981C4.39024 0.461409 4.21325 0.506801 4.06152 0.601026C3.91021 0.697304 3.7929 0.838597 3.72609 1.00503L0.461326 9.5056L0.428945 9.59169C-0.534674 12.1096 0.283611 14.9616 2.43599 16.5852L2.44723 16.594L2.47714 16.6151L7.44114 20.3325L9.89694 22.1911L11.3929 23.3206C11.568 23.4535 11.7816 23.5254 12.0013 23.5254C12.221 23.5254 12.4347 23.4535 12.6097 23.3206L14.1057 22.1911L16.5615 20.3325L21.5554 16.5926L21.5678 16.5827C23.715 14.9587 24.532 12.1119 23.5724 9.59665Z" fill="#E24329"/>
<path d="M23.5724 9.59684L23.5387 9.51074C21.9508 9.83667 20.4546 10.5093 19.1568 11.4805L12 16.8921C14.4371 18.7359 16.5589 20.3378 16.5589 20.3378L21.5528 16.598L21.5651 16.5881C23.7158 14.9639 24.5339 12.1142 23.5724 9.59684Z" fill="#FC6D26"/>
<path d="M7.44113 20.3373L9.89694 22.196L11.3929 23.3255C11.5679 23.4583 11.7816 23.5302 12.0013 23.5302C12.221 23.5302 12.4347 23.4583 12.6097 23.3255L14.1057 22.196L16.5615 20.3373C16.5615 20.3373 14.4373 18.7305 12.0002 16.8916C10.4796 18.0389 8.95988 19.1875 7.44113 20.3373Z" fill="#FCA326"/>
<path d="M4.8419 11.4805C3.54513 10.5074 2.04923 9.8331 0.461326 9.50586L0.428945 9.59195C-0.534674 12.1099 0.283611 14.9619 2.43599 16.5855L2.44723 16.5942L2.47714 16.6154L7.44114 20.3327L12 16.887L4.8419 11.4805Z" fill="#FC6D26"/>
</g>
<defs>
<clipPath id="clip0_523_1221">
<rect width="24" height="24" fill="white"/>
</clipPath>
</defs>
</svg>
