<svg width="24" height="24" viewBox="0 0 24 24" fill="none" xmlns="http://www.w3.org/2000/svg">
<path d="M15.9611 7.67049L18.0473 5.58427L18.1864 4.70583C14.3847 1.24899 8.34148 1.64096 4.91445 5.52371C3.96251 6.60211 3.25629 7.94658 2.8797 9.33493L3.62689 9.22964L7.79923 8.54161L8.12136 8.21218C9.97732 6.17386 13.1154 5.89964 15.2584 7.63393L15.9611 7.67049Z" fill="#EA4335"/>
<path d="M21.0192 9.27374C20.5396 7.50787 19.5552 5.9204 18.1863 4.70605L15.2583 7.63405C16.4947 8.6443 17.199 10.1662 17.1688 11.7625V12.2823C18.608 12.2823 19.7748 13.449 19.7748 14.8881C19.7748 16.3274 18.608 17.4649 17.1688 17.4649H11.9497L11.4373 18.0212V21.1468L11.9497 21.6372H17.1688C20.9123 21.6664 23.9706 18.6846 23.9998 14.9412C24.0174 12.6722 22.8987 10.545 21.0192 9.27374Z" fill="#4285F4"/>
<path d="M6.73784 21.6371H11.9497V17.4647H6.73784C6.3665 17.4646 6.00687 17.3848 5.66919 17.2305L4.92978 17.4573L2.82894 19.5436L2.64594 20.2536C3.82409 21.1432 5.26156 21.6435 6.73784 21.6371Z" fill="#34A853"/>
<path d="M6.73784 8.10258C2.99431 8.1249 -0.0221895 11.1778 0.000122987 14.9212C0.0125917 17.0116 0.988904 18.9795 2.64594 20.2538L5.66919 17.2306C4.35753 16.6381 3.77469 15.0945 4.36728 13.7829C4.95978 12.4713 6.50347 11.8885 7.81493 12.481C8.3929 12.7421 8.85575 13.205 9.11684 13.7829L12.1401 10.7597C10.8537 9.07815 8.855 8.09499 6.73784 8.10258Z" fill="#FBBC05"/>
</svg>
