<svg width="24" height="24" viewBox="0 0 24 24" fill="none" xmlns="http://www.w3.org/2000/svg">
<g clip-path="url(#clip0_523_1173)">
<path d="M12 0C9.62663 0 7.30655 0.703788 5.33316 2.02236C3.35977 3.34094 1.8217 5.21509 0.913451 7.4078C0.00519937 9.60051 -0.232441 12.0133 0.230582 14.3411C0.693605 16.6689 1.83649 18.8071 3.51472 20.4853C5.19295 22.1635 7.33115 23.3064 9.65892 23.7694C11.9867 24.2324 14.3995 23.9948 16.5922 23.0866C18.7849 22.1783 20.6591 20.6402 21.9776 18.6668C23.2962 16.6935 24 14.3734 24 12C24 8.8174 22.7357 5.76516 20.4853 3.51472C18.2349 1.26428 15.1826 0 12 0ZM13.4196 2.51344C15.6514 2.86693 17.6839 4.00518 19.1514 5.72346C20.619 7.44173 21.4253 9.62726 21.4253 11.8869C21.4255 13.1334 21.1802 14.3677 20.7034 15.5193C20.2266 16.6709 19.5276 17.7174 18.6463 18.5988C17.765 19.4803 16.7187 20.1795 15.5672 20.6565C14.4156 21.1336 13.1814 21.3791 11.9349 21.3791V21.3773C10.6259 21.3772 9.33105 21.1064 8.13173 20.5819C6.93242 20.0573 5.8546 19.2902 4.96603 18.329C4.07746 17.3678 3.39735 16.2331 2.96847 14.9963C2.53958 13.7595 2.37119 12.4474 2.47389 11.1424C2.57658 9.83743 2.94813 8.5678 3.56519 7.41333C4.18225 6.25887 5.03146 5.24454 6.05945 4.43412C7.08744 3.6237 8.27197 3.0347 9.53857 2.70416C10.8052 2.37362 12.1267 2.30869 13.4196 2.51344ZM10.5621 4.27331V9.20456L11.0511 9.83325H12.861L13.3193 9.20456V4.27331H10.5621ZM16.2278 5.28469L14.0288 8.31094L14.6368 8.75269L16.8356 5.72625L16.2278 5.28469ZM7.76007 5.28506L7.15182 5.72662L9.35063 8.75269L9.95869 8.31112L7.76007 5.28506ZM5.26688 8.14031L4.41338 10.7612L9.10501 12.2856L9.85294 12.0154L10.4126 10.2936L9.95625 9.663L5.26688 8.14031ZM18.6549 8.14031L13.9652 9.66281L13.5186 10.3206L14.0783 12.0443L14.8164 12.2858L19.5081 10.7614L18.6549 8.14031ZM15.8439 12.6178L15.6116 13.3322L19.1691 14.4883L19.4012 13.7739L15.8439 12.6178ZM8.04957 12.6182L4.49213 13.7741L4.72426 14.4885L8.28169 13.3328L8.04957 12.6182ZM10.0903 12.717L9.35213 12.9549L6.45151 16.9466L8.68313 18.5666L11.5802 14.5748L11.5553 13.7809L10.0903 12.717ZM13.8041 12.7245L12.3375 13.7887V14.5673L15.2363 18.5569L17.4658 16.9369L14.5671 12.9473L13.8041 12.7245ZM11.5361 15.6409V19.3815H12.2876V15.6409H11.5361Z" fill="#8A4182"/>
</g>
<defs>
<clipPath id="clip0_523_1173">
<rect width="24" height="24" fill="white"/>
</clipPath>
</defs>
</svg>
