<svg width="24" height="24" viewBox="0 0 24 24" fill="none" xmlns="http://www.w3.org/2000/svg">
<g clip-path="url(#clip0_521_770)">
<path d="M0 2C0 0.895429 0.895431 0 2 0H21.8446C22.9491 0 23.8446 0.895431 23.8446 2V21.8448C23.8446 22.9493 22.9491 23.8448 21.8446 23.8448H2C0.895432 23.8448 0 22.9493 0 21.8448V2Z" fill="#F0DB4F"/>
<path d="M21.9709 18.235C21.7962 17.1472 21.0869 16.2335 18.9857 15.3815C18.2558 15.0461 17.4421 14.8059 17.1996 14.2527C17.1135 13.9308 17.1021 13.7495 17.1566 13.5547C17.313 12.9223 18.0678 12.7251 18.6661 12.9065C19.0515 13.0356 19.4162 13.3326 19.6362 13.8063C20.6652 13.14 20.6631 13.1444 21.3815 12.6865C21.1185 12.2787 20.9781 12.0905 20.8059 11.916C20.1871 11.2247 19.3438 10.8687 17.9953 10.896L17.2928 10.9868C16.6196 11.1569 15.9781 11.5103 15.6019 11.984C14.4732 13.2647 14.7951 15.5063 16.1686 16.4287C17.5217 17.4444 19.5095 17.6754 19.7635 18.6251C20.0105 19.7878 18.909 20.1642 17.8141 20.0305C17.0073 19.8627 16.5585 19.4526 16.0734 18.7068C15.1804 19.2236 15.1804 19.2236 14.2623 19.7516C14.48 20.2276 14.7088 20.443 15.0737 20.8554C16.801 22.6074 21.1233 22.5213 21.8985 19.8695C21.9299 19.7785 22.1387 19.1712 21.9709 18.235ZM13.0404 11.0364H10.8101L10.801 16.8025C10.801 18.0287 10.8644 19.1529 10.665 19.4975C10.3387 20.1752 9.49317 20.0912 9.10784 19.9598C8.71564 19.767 8.51622 19.4929 8.28517 19.1055C8.22174 18.9943 8.17412 18.9082 8.15812 18.9015L6.34479 20.012C6.64631 20.6308 7.0905 21.168 7.65945 21.5169C8.50936 22.027 9.65164 22.1834 10.8463 21.9091C11.6238 21.6827 12.2947 21.2135 12.6459 20.4994C13.1537 19.5632 13.0448 18.4301 13.0402 17.1767C13.0516 15.132 13.0404 13.0876 13.0404 11.0364Z" fill="#323330"/>
</g>
<defs>
<clipPath id="clip0_521_770">
<rect width="24" height="24" fill="white"/>
</clipPath>
</defs>
</svg>
