<svg width="24" height="24" viewBox="0 0 24 24" fill="none" xmlns="http://www.w3.org/2000/svg">
<path d="M12.8146 8.79904L9.8328 0H22.5006L19.5086 8.82463C19.3789 8.85572 19.2525 8.89493 19.1297 8.94209L16.174 2.91247L13.2097 8.90642C13.0816 8.86225 12.9498 8.82593 12.8146 8.79904ZM3.07267 23.2028C7.05708 26.0015 11.4766 20.586 17.4966 19.9038C20.9536 19.699 23.3034 17.5826 21.9645 14.3065C19.4752 15.8398 17.1488 13.8306 17.165 11.8145H15.2735C15.2113 13.6144 13.8575 15.0306 11.7588 14.8201C10.1161 17.2775 8.21227 18.6582 6.052 19.36C4.5919 18.6861 3.21781 17.0448 3.84082 14.8526C3.56473 14.8217 3.29984 14.7539 3.05073 14.6542C1.04249 18.4042 0.794359 21.3678 3.07267 23.2028ZM6.03897 11.8148C6.03897 10.3905 4.48652 9.4955 3.25126 10.2076C2.01601 10.9198 2.01601 12.7098 3.25126 13.4219C4.48652 14.1341 6.03897 13.2391 6.03897 11.8148ZM14.0737 11.7971C14.0737 10.3729 12.5212 9.47786 11.286 10.19C10.0507 10.9021 10.0507 12.6921 11.286 13.4043C12.5212 14.1164 14.0737 13.2214 14.0737 11.7971ZM22.0783 11.7971C22.0783 10.3729 20.5258 9.47786 19.2905 10.19C18.0553 10.9021 18.0553 12.6921 19.2905 13.4043C20.5258 14.1164 22.0783 13.2214 22.0783 11.7971Z" fill="#99425B"/>
</svg>
