<svg width="24" height="24" viewBox="0 0 24 24" fill="none" xmlns="http://www.w3.org/2000/svg">
<g clip-path="url(#clip0_523_1228)">
<path d="M6.58181 1.6875V3.25941C5.96156 3.25941 5.47247 3.35616 5.11725 3.54834C4.76203 3.74053 4.51022 4.03866 4.36322 4.443C4.21603 4.84725 4.14188 5.36278 4.14188 5.98838V9.19838C4.14188 9.61594 4.0875 9.99628 3.97744 10.3383C3.86747 10.6802 3.666 10.9745 3.37181 11.2209C3.07622 11.4675 2.65875 11.6571 2.11528 11.7909C2.04638 11.8069 1.96819 11.82 1.89403 11.8346V12.0825L2.04375 12.1104C2.06837 12.1153 2.09222 12.1205 2.11528 12.1262C2.65875 12.2601 3.07753 12.4496 3.37181 12.6962C3.666 12.9427 3.86747 13.2368 3.97744 13.5788C4.0875 13.9221 4.14188 14.3012 4.14188 14.7187V17.9287C4.14188 18.5557 4.21603 19.0686 4.36312 19.4701C4.51031 19.8717 4.76213 20.1699 5.11725 20.3648C5.47256 20.5596 5.96156 20.6577 6.58181 20.6577V22.2308C5.79459 22.2308 5.1345 22.1448 4.599 21.9738C4.06369 21.8028 3.63684 21.5404 3.31481 21.1879C2.99269 20.8353 2.76206 20.3887 2.62031 19.8479C2.47856 19.3072 2.40825 18.6683 2.40825 17.9301V15.3628C2.40825 14.4853 2.22928 13.8598 1.87406 13.4847C1.51753 13.1096 0.893344 12.9228 0 12.9228V10.9969C0.893344 10.9969 1.51884 10.81 1.87406 10.4349C2.23059 10.0598 2.40825 9.43425 2.40825 8.55684V5.98838C2.40825 5.25009 2.47847 4.61128 2.62031 4.07053C2.76216 3.52978 2.99269 3.08316 3.31481 2.73056C3.63684 2.37806 4.06359 2.11556 4.59909 1.94466C5.1345 1.77366 5.79581 1.6875 6.58181 1.6875ZM17.4183 1.6875C18.2042 1.6875 18.8656 1.77366 19.401 1.94466C19.9364 2.11566 20.3632 2.37806 20.6854 2.73056C21.006 3.08306 21.238 3.52978 21.3798 4.07053C21.5215 4.61128 21.5918 5.25009 21.5918 5.98838V8.55694C21.5918 9.43444 21.7695 10.0599 22.126 10.435C22.4812 10.81 23.1068 10.997 24.0001 10.997V12.9215C23.1068 12.9215 22.4825 13.1083 22.126 13.4834C21.7707 13.8584 21.5918 14.4841 21.5918 15.3615V17.9288C21.5918 18.6669 21.5216 19.3058 21.3798 19.8466C21.2379 20.3873 21.0074 20.834 20.6853 21.1865C20.3646 21.5391 19.9365 21.8015 19.4009 21.9725C18.8656 22.1435 18.2055 22.2296 17.4183 22.2296V20.6564C18.0385 20.6564 18.5276 20.5583 18.8828 20.3634C19.2381 20.1686 19.4898 19.8704 19.6369 19.4689C19.7841 19.0673 19.8582 18.5543 19.8582 17.9273V14.7173C19.8582 14.2999 19.9126 13.9208 20.0227 13.5775C20.1326 13.2355 20.3341 12.9413 20.6283 12.6948C20.9225 12.4482 21.3413 12.2588 21.8848 12.1249C21.9537 12.1076 22.0319 12.0957 22.1061 12.0811V11.8333L21.9563 11.8047C21.9324 11.8 21.9086 11.795 21.8848 11.7895C21.3413 11.6571 20.9239 11.4675 20.6283 11.2209C20.3341 10.9744 20.1326 10.6802 20.0227 10.3383C19.9126 9.99628 19.8582 9.61594 19.8582 9.19847V5.98838C19.8582 5.36278 19.7841 4.84725 19.637 4.443C19.4898 4.03875 19.238 3.74053 18.8828 3.54834C18.5275 3.35616 18.0385 3.25941 17.4183 3.25941V1.6875ZM18.9067 11.9327C18.9067 12.0242 18.7317 12.2548 18.5197 12.4457C18.1643 12.7648 17.6446 13.262 17.1539 13.7444L16.7944 14.1005L16.3151 14.5847C16.0026 14.9053 15.792 15.1341 15.792 15.1627C15.792 15.213 16.1658 15.8585 16.6244 16.598L17.3984 17.8493C17.4152 17.8762 17.4227 17.9078 17.4199 17.9394C17.417 17.971 17.4039 18.0008 17.3825 18.0242L17.1982 18.166C17.0591 18.3198 16.965 18.4403 16.9464 18.5915C16.9705 18.659 16.9035 18.7012 16.8167 18.7416L16.7145 18.7875C16.4197 18.9247 16.196 18.7805 15.3961 17.8568L15.0186 17.4175C14.6402 16.9835 14.3207 16.6536 14.2733 16.6523C14.1526 16.6497 12.8179 18.1089 11.7854 19.372C10.8749 20.4854 10.0731 20.5079 9.84103 20.2893C9.45009 19.9181 9.50709 19.2833 9.98822 18.6604L10.0507 18.5826C10.2866 18.2981 10.7916 17.7662 11.3663 17.1888L11.5582 16.9969L11.9013 16.658C12.2326 16.3327 12.5687 16.0123 12.9094 15.6968L13.3441 15.2965L12.4571 13.392C11.9213 12.2199 11.9672 12.1166 12.7429 12.0228L13.4674 11.942L14.0969 12.8935C14.4428 13.4171 14.7768 13.8453 14.8365 13.8453C14.892 13.8453 15.4346 13.4133 16.0729 12.8628L16.6705 12.3445C17.3918 11.726 17.5408 11.6515 17.8318 11.6801L17.9152 11.6902C18.1425 11.7218 18.3463 11.7066 18.4185 11.6558L18.4349 11.6411C18.5568 11.4953 18.9067 11.7114 18.9067 11.9327ZM15.3016 3.22359C15.8795 3.22359 15.9656 3.42516 15.9656 3.42516C14.0027 4.44956 12.342 6.276 10.6269 9.63984L10.3507 10.1904L9.28434 12.2641C9.20025 12.4169 9.18356 12.2035 8.80772 11.6908L8.74359 11.6053C6.73987 8.61422 5.27944 8.05219 5.28816 8.00466C6.06225 7.50591 7.51228 7.99369 8.40816 8.79028L8.44134 8.82206L8.53003 8.89941C8.67609 9.03056 8.74463 9.11522 8.96222 9.35747C8.98397 9.35747 9.21328 8.9955 9.45159 8.60981L10.0066 7.6995C12.0026 4.55166 14.0902 3.22097 15.3016 3.22359Z" fill="#1E293B"/>
</g>
<defs>
<clipPath id="clip0_523_1228">
<rect width="24" height="24" fill="white"/>
</clipPath>
</defs>
</svg>
