<svg width="24" height="24" viewBox="0 0 24 24" fill="none" xmlns="http://www.w3.org/2000/svg">
<path fill-rule="evenodd" clip-rule="evenodd" d="M5.625 0H18.375C21.4816 0 24 2.5184 24 5.625V18.375C24 21.4816 21.4816 24 18.375 24H5.625C2.5184 24 0 21.4816 0 18.375V5.625C0 2.5184 2.5184 0 5.625 0ZM7.27181 9.39806H4.60856L3.1875 16.5233H4.56881L4.94644 14.6351H6.13894C6.543 14.6351 6.93387 14.5887 7.31156 14.496C7.68919 14.4032 8.04362 14.1846 8.37488 13.8401C8.6465 13.5685 8.8585 13.2638 9.01087 12.9259C9.16988 12.588 9.27256 12.2435 9.31894 11.8924C9.43819 11.1238 9.32225 10.5176 8.97112 10.0738C8.61994 9.62994 8.0535 9.40469 7.27181 9.39806ZM5.76926 10.5409L5.175 13.5122C5.21475 13.5188 5.2545 13.5221 5.29425 13.5221H5.43338C6.06944 13.5287 6.59944 13.4658 7.02338 13.3333C7.44737 13.1942 7.73225 12.7106 7.878 11.8824C7.99725 11.1868 7.878 10.786 7.52025 10.68C7.16913 10.5741 6.72856 10.5244 6.19856 10.5309C6.11912 10.5376 6.04294 10.5409 5.97 10.5409H5.76926ZM12.2638 7.5H10.8924L9.46144 14.6351H10.8328L11.6477 10.5508L12.7507 10.5608C13.1019 10.5608 13.3305 10.6303 13.4364 10.7694C13.5424 10.9086 13.5622 11.1438 13.4961 11.475L12.8601 14.6351H14.2513L14.9171 11.3259C15.0562 10.5839 14.9569 10.0804 14.619 9.81544C14.2877 9.5505 13.7842 9.41138 13.1085 9.39806H11.8763L12.2638 7.5ZM19.053 9.39806H16.3898L14.9687 16.5233H16.35L16.7276 14.6351H17.9201C18.3242 14.6351 18.7151 14.5887 19.0928 14.496C19.4704 14.4032 19.8248 14.1846 20.1561 13.8401C20.4277 13.5685 20.6397 13.2638 20.7921 12.9259C20.9511 12.588 21.0537 12.2435 21.1001 11.8924C21.2194 11.1238 21.1034 10.5176 20.7523 10.0738C20.4011 9.62994 19.8347 9.40469 19.053 9.39806ZM17.5504 10.5409L16.9562 13.5122C16.9959 13.5188 17.0357 13.5221 17.0754 13.5221H17.2146C17.8506 13.5287 18.3806 13.4658 18.8046 13.3333C19.2286 13.1942 19.5134 12.7106 19.6592 11.8824C19.7784 11.1868 19.6592 10.786 19.3014 10.68C18.9503 10.5741 18.5098 10.5244 17.9797 10.5309C17.9002 10.5376 17.8241 10.5409 17.7512 10.5409H17.5504Z" fill="#4F5B94"/>
</svg>
