<svg viewBox="0 0 24 24" fill="none" xmlns="http://www.w3.org/2000/svg">
<path d="M21.9457 15.1467C21.8104 13.6071 20.996 11.2595 19.8006 8.87088C19.2034 7.61283 18.0217 5.71856 18.0217 5.71856C17.846 5.43591 17.7503 5.30846 17.7503 5.30846C17.3297 4.67224 16.922 4.0648 16.5291 3.48511C16.5291 3.48511 16.4748 3.40083 16.3791 3.25899C16.3524 3.21685 16.311 3.16032 16.2843 3.11716C16.1997 2.99486 16.1091 2.87719 16.0129 2.76461C15.668 2.29432 15.2867 1.8543 14.8727 1.44901L14.8312 1.40789C14.7769 1.36473 14.7365 1.32258 14.6832 1.26605C14.003 0.686365 13.1886 0.361575 12.4423 0.176568H12.4285C12.3337 0.148817 12.2251 0.135454 12.1294 0.121065H12.1165C12.0622 0.106675 12.0208 0.106676 11.9665 0.0922861H11.9537C11.7196 0.0518362 11.4837 0.023707 11.2469 0.00800522C10.703 -0.0139974 10.1583 0.00937431 9.61805 0.0778967C8.2607 0.318406 7.25578 0.799425 6.54996 1.28044C6.5085 1.3082 6.46802 1.35034 6.42755 1.37911C5.54503 1.97217 4.86587 2.79236 4.49963 3.92296C4.22507 4.80889 4.0207 5.71675 3.88858 6.63743C3.88858 6.63743 3.88858 6.67957 3.87476 6.75049C3.80665 7.16059 3.75235 7.57069 3.71188 7.99415C3.56282 9.12475 3.35946 10.7795 3.20941 12.2781C3.16894 12.6882 3.12847 13.126 3.08799 13.5783V13.6071C2.96559 15.1755 2.93795 16.9146 3.22324 18.1017C3.83429 21.0146 5.97938 22.7382 8.73553 23.5163C9.25181 23.7002 9.86286 23.8133 10.623 23.8832C11.003 23.9264 11.3969 23.9685 11.7908 23.9829L12.1432 23.9973C16.9358 24.096 22.0138 21.5089 22 15.9813C21.9862 15.7131 21.9733 15.4294 21.9457 15.1467ZM10.9349 11.0622C10.4383 11.0611 9.96236 10.8552 9.61121 10.4896C9.26007 10.124 9.06233 9.62844 9.06129 9.11139C9.06129 8.03732 9.90334 7.16059 10.9349 7.16059C11.9665 7.16059 12.8085 8.03732 12.8085 9.11139C12.8075 9.62844 12.6098 10.124 12.2586 10.4896C11.9075 10.8552 11.4315 11.0611 10.9349 11.0622ZM15.4561 8.88527C14.7908 8.88527 14.2478 8.31997 14.2478 7.62722C14.2478 6.93447 14.7908 6.36917 15.4561 6.36917C16.1214 6.36917 16.6644 6.93447 16.6644 7.62722C16.6644 8.31997 16.1214 8.88527 15.4561 8.88527Z" fill="#5B48CC"/>
</svg>
