<svg width="24" height="24" viewBox="0 0 24 24" fill="none" xmlns="http://www.w3.org/2000/svg">
<g clip-path="url(#clip0_521_790)">
<path d="M11.8594 0.0568242C10.8851 0.0614396 9.95514 0.144286 9.13637 0.289209C6.72483 0.715209 6.28729 1.6069 6.28729 3.25159V5.42336H11.9857V6.14728H4.14852C2.49252 6.14728 1.04237 7.14259 0.588678 9.03675C0.0652933 11.2071 0.0422164 12.5617 0.588678 14.8281C0.993678 16.5153 1.96106 17.7171 3.61729 17.7171H5.57676V15.1136C5.57676 13.2326 7.20391 11.5736 9.1366 11.5736H14.8285C16.413 11.5736 17.6776 10.2688 17.6776 8.6779V3.25182C17.6776 1.70729 16.3747 0.547209 14.8285 0.28944C13.8491 0.126516 12.8335 0.0524396 11.8594 0.0568242ZM8.77775 1.80352C9.36622 1.80352 9.84714 2.29205 9.84714 2.89298C9.84714 3.49136 9.36645 3.97529 8.77775 3.97529C8.18699 3.97529 7.7086 3.49136 7.7086 2.89298C7.70837 2.29205 8.18699 1.80352 8.77775 1.80352Z" fill="url(#paint0_linear_521_790)"/>
<path d="M18.3881 6.14769V8.67831C18.3881 10.6398 16.7248 12.291 14.8283 12.291H9.13637C7.57729 12.291 6.28729 13.6255 6.28729 15.1869V20.6135C6.28729 22.1575 7.62991 23.0661 9.13637 23.5089C10.9401 24.039 12.6699 24.135 14.8283 23.5089C16.2628 23.0933 17.6774 22.2575 17.6774 20.6135V18.4415H11.9857V17.7173H20.5269C22.1829 17.7173 22.8004 16.5623 23.3764 14.8283C23.9714 13.0433 23.9458 11.3266 23.3764 9.03692C22.9671 7.38808 22.1854 6.14746 20.5269 6.14746L18.3881 6.14769ZM15.1867 19.8893C15.7777 19.8893 16.2561 20.3732 16.2561 20.9721C16.2561 21.5725 15.7774 22.0611 15.1867 22.0611C14.5982 22.0611 14.1175 21.5725 14.1175 20.9721C14.1175 20.3732 14.5982 19.8893 15.1867 19.8893Z" fill="url(#paint1_linear_521_790)"/>
</g>
<defs>
<linearGradient id="paint0_linear_521_790" x1="-0.383812" y1="0.735893" x2="12.7594" y2="11.9443" gradientUnits="userSpaceOnUse">
<stop stop-color="#5A9FD4"/>
<stop offset="1" stop-color="#306998"/>
</linearGradient>
<linearGradient id="paint1_linear_521_790" x1="17.7043" y1="18.9121" x2="12.991" y2="12.3024" gradientUnits="userSpaceOnUse">
<stop stop-color="#FFD43B"/>
<stop offset="1" stop-color="#FFE873"/>
</linearGradient>
<clipPath id="clip0_521_790">
<rect width="24" height="24" fill="white"/>
</clipPath>
</defs>
</svg>
