<svg width="24" height="24" viewBox="0 0 24 24" fill="none" xmlns="http://www.w3.org/2000/svg">
<g clip-path="url(#clip0_521_705)">
<path d="M11.9999 14.2434C13.2069 14.2434 14.1852 13.2391 14.1852 12.0001C14.1852 10.7612 13.2069 9.75684 11.9999 9.75684C10.793 9.75684 9.81464 10.7612 9.81464 12.0001C9.81464 13.2391 10.793 14.2434 11.9999 14.2434Z" fill="#61DAFB"/>
<path d="M20.3003 8.30054C19.8786 8.14311 19.4377 7.98569 18.9776 7.84794C19.0927 7.37567 19.1885 6.9034 19.2652 6.4508C19.6677 3.85331 19.2268 2.02326 18 1.31485C17.6358 1.09839 17.2332 1 16.7732 1C15.4313 1 13.7252 2.02326 12 3.73524C10.2748 2.02326 8.56869 1 7.22684 1C6.76677 1 6.36422 1.09839 6 1.31485C4.77316 2.04293 4.33227 3.87299 4.73482 6.4508C4.8115 6.9034 4.90735 7.37567 5.02236 7.84794C4.5623 7.98569 4.12141 8.12343 3.69968 8.30054C1.30351 9.24508 0 10.5438 0 12C0 13.4562 1.32268 14.7549 3.69968 15.6995C4.12141 15.8569 4.5623 16.0143 5.02236 16.1521C4.90735 16.6243 4.8115 17.0966 4.73482 17.5492C4.33227 20.1467 4.77316 21.9767 6 22.6852C6.36422 22.9016 6.76677 23 7.22684 23C8.58786 23 10.2939 21.9767 12 20.2648C13.7252 21.9767 15.4313 23 16.7732 23C17.2332 23 17.6358 22.9016 18 22.6852C19.2268 21.9571 19.6677 20.127 19.2652 17.5492C19.1885 17.0966 19.0927 16.6243 18.9776 16.1521C19.4377 16.0143 19.8786 15.8766 20.3003 15.6995C22.6965 14.7549 24 13.4562 24 12C24 10.5438 22.6965 9.24508 20.3003 8.30054ZM17.4633 2.29875C18.2492 2.77102 18.5176 4.22719 18.1917 6.29338C18.1342 6.70662 18.0383 7.13953 17.9233 7.59213C16.9265 7.35599 15.8722 7.19857 14.7604 7.10018C14.1086 6.15563 13.4377 5.30948 12.7668 4.54204C14.1853 3.10555 15.623 2.12165 16.7923 2.12165C17.0415 2.12165 17.2716 2.18068 17.4633 2.29875ZM15.3163 13.9678C14.9712 14.5975 14.5687 15.2272 14.147 15.8569C13.4377 15.9159 12.7284 15.9356 12 15.9356C11.2524 15.9356 10.5431 15.9159 9.85303 15.8569C9.43131 15.2272 9.04792 14.5975 8.70288 13.9678C8.33866 13.3184 7.99361 12.6494 7.6869 12C7.99361 11.3506 8.33866 10.6816 8.70288 10.0322C9.04792 9.4025 9.45048 8.77281 9.8722 8.14311C10.5815 8.08408 11.2907 8.0644 12.0192 8.0644C12.7668 8.0644 13.476 8.08408 14.1661 8.14311C14.5879 8.77281 14.9712 9.4025 15.3163 10.0322C15.6805 10.6816 16.0256 11.3506 16.3323 12C16.0064 12.6494 15.6805 13.2987 15.3163 13.9678ZM16.9073 13.3184C17.1949 14.0072 17.4249 14.6762 17.6358 15.3453C16.984 15.5027 16.2939 15.6208 15.5655 15.7191C15.7955 15.3453 16.0447 14.9517 16.2556 14.5385C16.4856 14.1252 16.6965 13.712 16.9073 13.3184ZM12 18.6512C11.5399 18.1395 11.099 17.5886 10.6773 17.0179C11.1182 17.0376 11.5591 17.0572 12 17.0572C12.4409 17.0572 12.8818 17.0376 13.3227 17.0179C12.901 17.5886 12.4601 18.1395 12 18.6512ZM8.4345 15.6995C7.70607 15.6011 7.01597 15.483 6.36422 15.3256C6.57508 14.6762 6.80511 13.9875 7.09265 13.2987C7.30351 13.6923 7.51438 14.1055 7.74441 14.4991C7.97444 14.932 8.20447 15.3059 8.4345 15.6995ZM7.09265 10.6816C6.80511 9.99284 6.57508 9.32379 6.36422 8.65474C7.01597 8.49732 7.70607 8.37925 8.4345 8.28086C8.20447 8.65474 7.95527 9.0483 7.74441 9.46154C7.51438 9.87478 7.30351 10.288 7.09265 10.6816ZM12 5.34884C12.4601 5.86047 12.901 6.41145 13.3227 6.98211C12.8818 6.96243 12.4409 6.94275 12 6.94275C11.5591 6.94275 11.1182 6.96243 10.6773 6.98211C11.099 6.41145 11.5399 5.86047 12 5.34884ZM16.2556 9.48122L15.5655 8.30054C16.2939 8.39893 16.984 8.51699 17.6358 8.67442C17.4249 9.32379 17.1949 10.0125 16.9073 10.7013C16.6965 10.288 16.4856 9.87478 16.2556 9.48122ZM5.80831 6.29338C5.48243 4.22719 5.7508 2.77102 6.53674 2.29875C6.72843 2.18068 6.95847 2.12165 7.20767 2.12165C8.35783 2.12165 9.79553 3.08587 11.2332 4.54204C10.5623 5.2898 9.89137 6.15563 9.23962 7.10018C8.1278 7.19857 7.07348 7.37567 6.07668 7.59213C5.96166 7.13953 5.88498 6.70662 5.80831 6.29338ZM1.07348 12C1.07348 11.0751 2.16613 10.0912 4.08307 9.36315C4.46645 9.20572 4.88818 9.06798 5.3099 8.94991C5.61661 9.93381 6 10.9767 6.46006 12.0197C6 13.0626 5.59744 14.0859 5.3099 15.0698C2.66454 14.2826 1.07348 13.102 1.07348 12ZM6.53674 21.7013C5.7508 21.229 5.48243 19.7728 5.80831 17.7066C5.86582 17.2934 5.96166 16.8605 6.07668 16.4079C7.07348 16.644 8.1278 16.8014 9.23962 16.8998C9.89137 17.8444 10.5623 18.6905 11.2332 19.458C9.8147 20.8945 8.377 21.8784 7.20767 21.8784C6.95847 21.8784 6.72843 21.8193 6.53674 21.7013ZM18.1917 17.7066C18.5176 19.7728 18.2492 21.229 17.4633 21.7013C17.2716 21.8193 17.0415 21.8784 16.7923 21.8784C15.6422 21.8784 14.2045 20.9141 12.7668 19.458C13.4377 18.7102 14.1086 17.8444 14.7604 16.8998C15.8722 16.8014 16.9265 16.6243 17.9233 16.4079C18.0383 16.8605 18.115 17.2934 18.1917 17.7066ZM19.9169 14.6369C19.5335 14.7943 19.1118 14.932 18.6901 15.0501C18.3834 14.0662 18 13.0233 17.5399 11.9803C18 10.9374 18.4026 9.91413 18.6901 8.93023C21.3355 9.71735 22.9265 10.898 22.9265 12C22.9265 12.9249 21.8147 13.9088 19.9169 14.6369Z" fill="#61DAFB"/>
</g>
<defs>
<clipPath id="clip0_521_705">
<rect width="24" height="24" fill="white"/>
</clipPath>
</defs>
</svg>
