<svg width="24" height="24" viewBox="0 0 24 24" fill="none" xmlns="http://www.w3.org/2000/svg">
<path d="M23.447 9.756C23.4743 9.80667 23.5003 9.86867 23.525 9.942C23.497 9.882 23.478 9.813 23.447 9.756C24.039 12.06 21.497 14.759 18.317 13.995H18.318C22.914 10.985 20.65 7.223 18.508 5.415C16.746 3.925 17.787 3.465 18.529 3.465C18.766 3.465 18.972 3.511 19.048 3.586C19.03 2.153 13.983 2.476 18.399 7.08C20.667 9.445 17.991 14.676 14.803 10.698C14.7768 10.662 14.7531 10.6242 14.732 10.585C15.247 10.371 15.669 9.79 15.669 8.832C15.6737 8.49311 15.6065 8.15707 15.472 7.846C15.84 7.096 16.179 6.199 16.179 5.076C16.179 2.392 14.437 0 11.999 0C9.56098 0 7.81898 2.392 7.81898 5.076C7.81898 6.199 8.15798 7.096 8.52598 7.847C8.39115 8.15869 8.324 8.49544 8.32898 8.835C8.32898 9.793 8.74998 10.375 9.26598 10.588C9.24453 10.6272 9.22048 10.665 9.19398 10.701C6.00598 14.679 3.32998 9.447 5.59798 7.083C10.015 2.479 4.96498 2.157 4.94698 3.589L4.95498 3.585C5.03298 3.511 5.23498 3.465 5.46998 3.465C6.21198 3.465 7.25298 3.925 5.49098 5.415C3.35798 7.215 1.10798 10.953 5.62998 13.957C5.64798 13.97 5.65998 13.984 5.67898 13.997C2.50298 14.761 -0.0350237 12.069 0.547976 9.765L0.551976 9.755C0.55131 9.75767 0.549976 9.75967 0.547976 9.761L0.548976 9.758L0.545976 9.765C-0.628024 11.375 -0.0600238 15.544 4.32398 15.933L4.37798 15.945C0.0179758 16.945 1.32998 22.965 4.39898 22.001L4.38798 22L4.40398 21.997C2.26998 21.652 2.10998 19 3.17598 18.087C4.34798 17.081 5.69498 17.95 8.47798 17.155L8.50798 17.151C8.47798 19.597 10.86 20.911 9.61098 22.311C8.29498 23.784 6.49898 22.211 6.75298 20.761L6.75898 20.732L6.75498 20.74V20.736L6.75098 20.748C5.64998 22.598 7.04398 24 8.60998 24C9.50898 24 10.465 23.538 11.039 22.433C12.253 20.096 8.65398 16.001 11.999 16.001C15.344 16.001 11.744 20.096 12.958 22.433C13.532 23.538 14.488 24 15.388 24C16.959 24 18.358 22.589 17.238 20.732L17.243 20.753L17.237 20.736C17.513 22.193 15.704 23.793 14.382 22.311C13.138 20.907 15.513 19.593 15.488 17.148C18.294 17.96 19.645 17.076 20.822 18.088C21.888 18.999 21.728 21.652 19.594 21.998H19.601C22.671 22.956 23.978 16.944 19.619 15.941L19.624 15.94C24.064 15.578 24.633 11.367 23.446 9.756H23.447ZM3.20898 10.146C3.07198 7.9 5.01898 6.073 5.61998 5.565C6.45798 4.858 6.78498 4.293 6.61798 3.838C6.56517 3.7013 6.47628 3.58148 6.36075 3.49132C6.24523 3.40115 6.10741 3.34402 5.96198 3.326C5.77095 3.29633 5.57586 3.30655 5.38898 3.356C5.55798 3.274 5.75398 3.226 5.96298 3.226C6.43798 3.226 6.82898 3.449 6.95798 3.795C7.07498 4.108 7.07798 4.802 5.78398 5.928C3.73698 7.711 3.57098 9.85 4.09898 11.258C4.55698 12.481 5.56898 13.272 6.67898 13.272C6.85631 13.272 7.03398 13.253 7.21198 13.215C6.67198 13.675 6.05198 13.825 5.79998 13.871C4.30598 12.826 3.28798 11.452 3.20898 10.144V10.146ZM8.41698 17.019C7.28198 17.321 6.12198 17.338 5.37898 17.342C4.45498 17.348 3.72398 17.352 3.04598 17.935C2.42898 18.463 2.17298 19.529 2.43698 20.471C2.52798 20.796 2.62698 21.127 2.86298 21.328C3.04098 21.481 3.34498 21.698 3.64998 21.85L3.63398 21.846C3.65298 21.856 3.66698 21.869 3.68598 21.879C2.69298 21.667 2.11398 20.699 2.04398 19.745C1.95598 18.54 2.64598 17.017 4.87598 16.69C5.22998 16.638 5.60398 16.607 5.97698 16.576C6.88698 16.5 7.82698 16.421 8.47398 16.036C8.44998 16.416 8.42798 16.824 8.41698 17.019ZM8.66698 14.335C8.01698 15.333 6.73098 15.488 5.59698 15.625C5.27764 15.6623 4.98331 15.7083 4.71398 15.763L4.35798 15.739C2.55698 15.583 1.21698 14.733 0.582976 13.343C0.288863 12.7003 0.167204 11.992 0.229976 11.288C0.229976 11.288 0.267976 10.912 0.337976 10.518C0.250976 11.613 0.544976 12.656 1.21798 13.515C1.65246 14.0633 2.20506 14.5065 2.8346 14.8116C3.46414 15.1166 4.15441 15.2757 4.85398 15.277C6.18398 15.277 7.44198 14.687 8.39898 13.614C8.72898 13.244 8.87698 13.216 8.91498 13.216C9.04298 13.402 8.93398 13.924 8.66798 14.335H8.66698ZM15.039 8.832C15.039 10.179 13.512 10.179 13.512 8.832C13.512 7.485 15.039 7.485 15.039 8.832ZM13.234 3.34C13.234 4.081 11.999 4.081 11.999 3.34C11.999 2.6 13.234 2.6 13.234 3.34ZM12.976 11.496C12.976 12.245 12.916 12.852 12.843 12.852C12.77 12.852 12.717 12.247 12.718 11.497C12.718 10.747 12.78 10.141 12.851 10.141C12.921 10.141 12.979 10.747 12.976 11.496ZM12.024 9.882C12.08 9.882 12.124 10.612 12.124 11.513C12.124 12.414 12.08 13.144 12.024 13.144C11.968 13.144 11.924 12.414 11.924 11.514C11.924 10.612 11.969 9.882 12.024 9.882ZM11.831 1.672C11.831 2.183 10.982 2.183 10.982 1.672C10.982 1.161 11.831 1.166 11.831 1.672ZM11.244 5.892C11.244 5.538 11.831 5.541 11.831 5.892C11.831 6.246 11.244 6.246 11.244 5.892ZM11.29 11.514C11.29 12.282 11.226 12.904 11.153 12.904C11.08 12.904 11.021 12.282 11.022 11.515C11.023 10.748 11.086 10.126 11.16 10.126C11.234 10.126 11.292 10.746 11.29 11.514ZM11.29 4.019C11.29 4.529 10.441 4.529 10.441 4.019C10.441 3.509 11.29 3.509 11.29 4.019ZM10.143 2.785C10.143 3.138 9.55598 3.138 9.55598 2.785C9.55598 2.432 10.143 2.432 10.143 2.785ZM10.063 5.293C10.063 5.548 9.63798 5.548 9.63798 5.293C9.63798 5.037 10.063 5.037 10.063 5.293ZM8.96298 8.833C8.96298 7.486 10.491 7.486 10.491 8.833C10.491 10.18 8.96298 10.18 8.96298 8.833ZM14.29 17.921C14.212 18.661 14.017 19.301 13.844 19.867C13.497 21.005 13.222 21.903 14.086 22.869C14.449 23.276 14.915 23.491 15.432 23.491C16.072 23.491 16.71 23.151 17.096 22.602C17.2673 22.3492 17.3785 22.0605 17.421 21.758C17.438 21.918 17.447 22.068 17.436 22.175C17.417 22.4019 17.3499 22.6221 17.239 22.821C16.903 23.416 16.176 23.801 15.389 23.801C14.439 23.801 13.619 23.269 13.136 22.342C12.655 21.415 13.004 20.128 13.313 18.992C13.615 17.877 13.877 16.915 13.417 16.314C13.154 15.969 12.69 15.802 12 15.802C11.31 15.802 10.845 15.969 10.582 16.314C10.122 16.914 10.384 17.877 10.686 18.992C10.995 20.128 11.344 21.415 10.863 22.342C10.382 23.269 9.55998 23.801 8.61098 23.801C7.82298 23.801 7.09598 23.416 6.75998 22.821C6.58082 22.4993 6.51663 22.1261 6.57798 21.763C6.62598 22.059 6.71998 22.345 6.90098 22.603C7.28798 23.15 7.92598 23.491 8.56598 23.491C9.08398 23.491 9.54998 23.276 9.91398 22.869C10.776 21.903 10.502 21.007 10.154 19.871C9.98098 19.304 9.78498 18.661 9.70898 17.921C9.60898 16.955 9.82798 16.094 10.309 15.561C10.708 15.12 11.276 14.895 11.999 14.895C12.722 14.895 13.292 15.119 13.689 15.56C14.169 16.093 14.389 16.953 14.289 17.92L14.29 17.921ZM17.319 13.274C18.429 13.274 19.441 12.484 19.898 11.26C20.424 9.852 20.258 7.713 18.208 5.93C16.913 4.803 16.916 4.11 17.033 3.796C17.163 3.451 17.553 3.227 18.027 3.227C18.22 3.227 18.399 3.272 18.559 3.342L18.57 3.346C18.3948 3.30821 18.2143 3.30211 18.037 3.328C17.8915 3.34602 17.7537 3.40315 17.6382 3.49332C17.5227 3.58348 17.4338 3.7033 17.381 3.84C17.215 4.295 17.541 4.86 18.379 5.568C18.979 6.075 20.927 7.902 20.79 10.146C20.71 11.454 19.693 12.828 18.199 13.873C17.6802 13.778 17.1942 13.5522 16.787 13.217C16.965 13.255 17.1423 13.274 17.319 13.274ZM21.954 19.743C21.884 20.699 21.304 21.665 20.309 21.877L20.351 21.85C20.656 21.697 20.959 21.482 21.136 21.33C21.371 21.128 21.471 20.797 21.562 20.472C21.826 19.53 21.57 18.464 20.953 17.936C20.275 17.354 19.544 17.349 18.62 17.343C17.877 17.339 16.717 17.322 15.58 17.02C15.57 16.824 15.55 16.418 15.526 16.037C16.173 16.423 17.115 16.502 18.026 16.579C18.399 16.61 18.77 16.641 19.123 16.692C21.353 17.019 22.042 18.54 21.953 19.742L21.954 19.743ZM19.288 15.764C19.018 15.7093 18.7226 15.6627 18.402 15.624C17.267 15.488 15.981 15.333 15.332 14.334C15.064 13.924 14.952 13.404 15.04 13.244C15.055 13.2371 15.0715 13.234 15.088 13.235C15.178 13.235 15.326 13.308 15.599 13.614C16.556 14.687 17.816 15.277 19.145 15.277C20.559 15.277 21.919 14.617 22.782 13.514C23.454 12.656 23.747 11.614 23.662 10.52C23.732 10.913 23.769 11.29 23.769 11.29C23.8316 11.9937 23.7099 12.7016 23.416 13.344C22.782 14.734 21.442 15.584 19.641 15.74L19.288 15.764ZM9.59798 8.269C9.63461 8.29242 9.6642 8.32535 9.68357 8.36427C9.70294 8.4032 9.71138 8.44665 9.70798 8.49C9.71099 8.52268 9.70716 8.55564 9.69672 8.58675C9.68629 8.61787 9.66947 8.64647 9.64736 8.67072C9.62524 8.69497 9.59831 8.71435 9.56828 8.7276C9.53826 8.74086 9.5058 8.7477 9.47298 8.7477C9.44015 8.7477 9.40769 8.74086 9.37767 8.7276C9.34764 8.71435 9.32071 8.69497 9.29859 8.67072C9.27648 8.64647 9.25967 8.61787 9.24923 8.58675C9.23879 8.55564 9.23496 8.52268 9.23798 8.49C9.23372 8.44617 9.24187 8.40203 9.26149 8.36261C9.28111 8.32318 9.31141 8.29007 9.34893 8.26703C9.38646 8.24399 9.4297 8.23196 9.47374 8.23231C9.51777 8.23266 9.56082 8.24537 9.59798 8.269ZM13.893 8.712C13.8562 8.6885 13.8265 8.65541 13.8071 8.61629C13.7877 8.57717 13.7794 8.53351 13.783 8.49C13.7809 8.45792 13.7854 8.42575 13.7962 8.39548C13.8071 8.3652 13.824 8.33748 13.846 8.31402C13.868 8.29055 13.8945 8.27185 13.924 8.25906C13.9535 8.24628 13.9853 8.23968 14.0175 8.23968C14.0496 8.23968 14.0814 8.24628 14.1109 8.25906C14.1404 8.27185 14.167 8.29055 14.189 8.31402C14.211 8.33748 14.2279 8.3652 14.2387 8.39548C14.2496 8.42575 14.2541 8.45792 14.252 8.49C14.2559 8.53364 14.2476 8.57751 14.228 8.6167C14.2084 8.65589 14.1783 8.68885 14.1411 8.71189C14.1038 8.73494 14.0608 8.74715 14.017 8.74717C13.9732 8.74719 13.9303 8.73501 13.893 8.712Z" fill="#FC4544"/>
</svg>
