<svg width="24" height="24" viewBox="0 0 24 24" fill="none" xmlns="http://www.w3.org/2000/svg">
<g clip-path="url(#clip0_521_753)">
<path d="M1.38283 15.1753C0.890639 13.6424 0.749283 12.0236 1.03273 10.3583C1.15577 9.66759 1.34548 9.00474 1.55347 8.33308C1.55347 8.33308 2.85937 4.04626 7.27878 2.08708C7.27878 2.08708 8.80222 1.28287 11.0925 1.22649C11.0925 1.22649 10.7805 0.923264 10.5813 0.790701C9.50244 0.07147 7.89405 -0.165118 6.91923 0.847831C6.62553 1.15032 6.37944 1.48211 6.10552 1.7846C5.79277 2.12517 5.41411 2.40935 4.97906 2.56976C4.6004 2.71185 4.22173 2.68328 3.83428 2.74993C3.43657 2.81585 3.02934 2.95794 2.70781 3.21356C2.35771 3.49774 2.21563 3.87566 2.17828 4.31147C2.14019 4.65204 2.14971 5.00214 2.13067 5.34272C2.08306 6.34614 1.76152 6.62959 1.04229 7.18843C0.739793 7.41548 0.484174 7.71797 0.294481 8.04024C-0.273138 9.04294 0.635787 10.0836 0.682662 11.0967C0.692183 11.3047 0.673141 11.5127 0.597702 11.7119C0.52153 11.9294 0.370658 12.0715 0.247602 12.251C0.0769469 12.4875 -0.0365731 12.7717 0.0110332 13.0647C0.0579082 13.3584 0.209521 13.633 0.351608 13.8887C0.626258 14.3428 0.966833 14.7492 1.32646 15.1374C1.3455 15.1374 1.36381 15.1565 1.38285 15.1755" fill="#E32186"/>
<path d="M19.44 18.8086C21.6167 17.8623 22.5441 16.2254 22.5441 16.2254C24.5788 13.4524 23.8881 10.5286 23.8881 10.5286C22.5917 13.3484 21.408 14.1248 21.408 14.1248C24.5977 9.2695 21.427 6.33625 21.427 6.33625C22.7234 9.09963 21.0015 12.4681 21.0015 12.4681C19.5535 15.5157 17.4998 16.6041 17.4998 16.6041C19.7901 17.0297 21.4746 15.4872 21.4746 15.4872C18.1903 19.0358 14.6323 18.8659 14.6323 18.8659C16.1279 20.541 18.3707 20.3989 18.3707 20.3989C15.4373 21.0896 12.6834 20.1147 10.4216 18.2316C9.99537 17.8815 9.58887 17.5028 9.21021 17.0963C9.21021 17.0963 8.86964 16.7367 8.80298 16.6422L8.79346 16.6327C8.74659 18.3832 10.5725 20.0107 10.5725 20.0107C8.28221 19.0644 7.23202 17.0107 7.23202 17.0107C7.23202 17.0107 5.68953 14.3799 6.80649 11.3806C7.92269 8.38064 11.3014 7.73677 11.3014 7.73677C14.0935 9.09029 16.4592 9.51582 16.4592 9.51582C21.4463 10.3486 21.1628 7.90743 21.1628 7.90743C21.2097 5.80612 18.0398 3.57299 18.0398 3.57299C12.3899 -0.619319 7.27974 2.08691 7.27974 2.08691C2.86036 4.04609 1.55443 8.33291 1.55443 8.33291C1.34641 9.00453 1.15672 9.66738 1.03368 10.3581C0.551019 13.1691 1.27978 15.8278 2.86034 18.1943C5.32053 21.8659 9.31447 23.1338 9.31447 23.1338C15.2288 25.1398 19.2696 22.1875 19.2696 22.1875C22.9888 19.632 23.7366 16.6797 23.7366 16.6797C20.7366 19.0272 19.4402 18.8087 19.4402 18.8087L19.44 18.8086ZM14.8221 5.00163C15.1055 5.00163 15.3326 5.22867 15.3326 5.51286C15.3326 5.79631 15.1055 6.02337 14.8221 6.02337C14.5379 6.02337 14.3108 5.79633 14.3108 5.51286C14.3108 5.22869 14.5379 5.00163 14.8221 5.00163Z" fill="url(#paint0_linear_521_753)"/>
<path d="M21.1519 7.89772C21.1987 5.79641 18.0289 3.56328 18.0289 3.56328C12.3789 -0.619653 7.26881 2.08672 7.26881 2.08672C2.84943 4.04591 1.54349 8.33272 1.54349 8.33272C1.28788 9.06148 1.06083 10.1784 1.06083 10.1784C0.786182 11.5788 0.909221 12.8752 0.909221 12.8752C1.02275 14.1152 1.2974 14.9481 1.2974 14.9481C1.58158 15.8372 1.71343 16.1119 1.71343 16.1119C1.70464 16.0833 1.65703 15.8753 1.65703 15.8753C1.65703 15.8753 1.25933 13.9637 1.62847 12.1276C1.62847 12.1276 1.94999 10.216 3.25664 8.74018C3.25664 8.74018 5.37633 5.72105 9.32264 6.90399C9.32264 6.90399 10.1745 7.20722 10.4674 7.3581C10.7611 7.50019 11.2716 7.71772 11.2716 7.71772C14.0637 9.07125 16.4294 9.49678 16.4294 9.49678C21.4354 10.3391 21.1521 7.89791 21.1521 7.89791L21.1519 7.89772ZM14.8207 6.03298C14.5366 6.03298 14.3095 5.80593 14.3095 5.52247C14.3095 5.2383 14.5366 5.01123 14.8207 5.01123C15.1042 5.01123 15.3313 5.23828 15.3313 5.52247C15.3313 5.80592 15.1042 6.03298 14.8207 6.03298Z" fill="url(#paint1_radial_521_753)"/>
<path d="M11.5847 4.09392L8.35761 3.0905C8.33857 3.0905 8.24409 3.04289 8.07344 3.0905C8.07344 3.0905 6.17125 3.57316 6.5024 4.61393C6.5024 4.61393 6.70161 5.26726 7.24068 5.9008L10.7893 5.73088L11.5847 4.09392Z" fill="url(#paint2_linear_521_753)"/>
</g>
<defs>
<linearGradient id="paint0_linear_521_753" x1="3.64442" y1="22.027" x2="15.4202" y2="9.49927" gradientUnits="userSpaceOnUse">
<stop stop-color="#DF1C84"/>
<stop offset="0.401" stop-color="#DE1C85"/>
<stop offset="0.77" stop-color="#932C86"/>
<stop offset="1" stop-color="#5C2F87"/>
</linearGradient>
<radialGradient id="paint1_radial_521_753" cx="0" cy="0" r="1" gradientUnits="userSpaceOnUse" gradientTransform="translate(16.606 6.17551) rotate(0.136939) scale(11.5058 9.62096)">
<stop stop-color="#DF1C84"/>
<stop offset="0.139" stop-color="#DE1E85"/>
<stop offset="0.285" stop-color="#D62085"/>
<stop offset="0.434" stop-color="#C82286"/>
<stop offset="0.586" stop-color="#B72786"/>
<stop offset="0.739" stop-color="#9C2A86"/>
<stop offset="0.891" stop-color="#7C2E87"/>
<stop offset="1" stop-color="#5C2F87"/>
</radialGradient>
<linearGradient id="paint2_linear_521_753" x1="6.45658" y1="4.48511" x2="11.5818" y2="4.48511" gradientUnits="userSpaceOnUse">
<stop stop-color="#DF1C84"/>
<stop offset="0.238" stop-color="#D91E85"/>
<stop offset="0.658" stop-color="#C72085"/>
<stop offset="0.999" stop-color="#B42184"/>
</linearGradient>
<clipPath id="clip0_521_753">
<rect width="24" height="24" fill="white"/>
</clipPath>
</defs>
</svg>
