<svg width="24" height="24" viewBox="0 0 24 24" fill="none" xmlns="http://www.w3.org/2000/svg">
<g clip-path="url(#clip0_521_751)">
<path fill-rule="evenodd" clip-rule="evenodd" d="M11.9866 0.131836C18.5338 0.131836 23.8412 5.43931 23.8412 11.9865C23.8412 18.5337 18.5338 23.8412 11.9866 23.8412C5.43934 23.8412 0.131866 18.5337 0.131866 11.9865C0.131866 5.43931 5.43934 0.131836 11.9866 0.131836Z" fill="#D06397"/>
<path d="M19.4226 5.20615C18.8857 3.10076 15.3946 2.40871 12.0906 3.58232C10.1243 4.28096 7.99546 5.37739 6.46515 6.80891C4.64533 8.51098 4.35502 9.99255 4.47462 10.6116C4.89665 12.7961 7.88956 14.2239 9.11981 15.2832V15.2895C8.75706 15.4681 6.10161 16.8119 5.48016 18.1857C4.82447 19.6352 5.58448 20.6752 6.08765 20.8151C7.64667 21.249 9.24679 20.4687 10.1067 19.1863C10.9365 17.9486 10.8672 16.3504 10.5068 15.5553C11.0042 15.4241 11.584 15.3654 12.3211 15.4512C14.4007 15.6941 14.8087 16.9926 14.7305 17.5361C14.6525 18.0796 14.2163 18.3783 14.0706 18.4684C13.9247 18.5587 13.8801 18.5898 13.8925 18.657C13.9102 18.7545 13.9776 18.7508 14.1019 18.7297C14.2732 18.7007 15.1939 18.2877 15.2331 17.2845C15.2832 16.011 14.0627 14.5864 11.9017 14.6235C11.0118 14.6388 10.452 14.7236 10.0479 14.874C10.0181 14.8401 9.98758 14.8061 9.95623 14.7726C8.62034 13.3472 6.15061 12.339 6.2552 10.4227C6.29339 9.72621 6.53549 7.89163 11.0008 5.66664C14.6586 3.84392 17.587 4.3455 18.093 5.45721C18.8159 7.04521 16.5279 9.99703 12.7292 10.4227C11.2818 10.585 10.5197 10.0242 10.3303 9.81526C10.1306 9.59528 10.1011 9.58527 10.0266 9.62663C9.90512 9.69381 9.98205 9.88796 10.0266 10.0039C10.1401 10.2989 10.6053 10.8224 11.3988 11.0829C12.0969 11.3121 13.7961 11.4378 15.8512 10.643C18.1531 9.75282 19.9505 7.27624 19.4226 5.20615ZM9.63062 15.9357C9.80317 16.5737 9.7842 17.1686 9.60612 17.7073C9.58636 17.7671 9.5645 17.8264 9.54079 17.8849C9.51708 17.9434 9.49152 18.001 9.46413 18.0582C9.32661 18.3433 9.14247 18.6101 8.9167 18.8564C8.22782 19.6078 7.26548 19.892 6.85293 19.6525C6.4072 19.3941 6.63059 18.3348 7.42907 17.4905C8.28814 16.5824 9.52419 15.9984 9.52419 15.9984L9.52235 15.9947C9.55791 15.9755 9.594 15.9557 9.63062 15.9357Z" fill="white"/>
</g>
<defs>
<clipPath id="clip0_521_751">
<rect width="24" height="24" fill="white"/>
</clipPath>
</defs>
</svg>
