<svg width="24" height="24" viewBox="0 0 24 24" fill="none" xmlns="http://www.w3.org/2000/svg">
<g clip-path="url(#clip0_521_788)">
<path d="M4.00067 8.70996H23.2916V22.9687H4.00067V8.70996Z" fill="white"/>
<path d="M-0.0968018 11.9825V24.0793H24.0967V-0.114258H-0.0968018V11.9825ZM19.3993 11.0148C19.9788 11.1492 20.5054 11.4523 20.9129 11.8857C21.1372 12.1192 21.3322 12.3792 21.4935 12.6599C21.4935 12.6909 20.4484 13.3974 19.8116 13.7922C19.7884 13.8077 19.6955 13.707 19.5929 13.5541C19.4766 13.3535 19.3115 13.1857 19.1128 13.0662C18.9141 12.9467 18.6884 12.8795 18.4567 12.8709C17.7232 12.8206 17.2509 13.2057 17.2548 13.8386C17.2487 13.9962 17.2848 14.1526 17.3593 14.2915C17.52 14.6264 17.82 14.8257 18.7606 15.2322C20.4929 15.9774 21.2342 16.469 21.6948 17.1677C22.2096 17.9419 22.3238 19.1922 21.9755 20.1174C21.5884 21.1238 20.64 21.807 19.2987 22.0335C18.6861 22.1036 18.0671 22.0971 17.4561 22.0141C16.5196 21.8598 15.657 21.4102 14.9942 20.7309C14.7716 20.4851 14.338 19.8444 14.3651 19.798C14.4358 19.7455 14.5102 19.6983 14.5877 19.6567L15.4838 19.1612L16.1787 18.7586L16.3238 18.9735C16.5688 19.3239 16.8806 19.6225 17.2413 19.8522C18.0155 20.2586 19.0722 20.2025 19.5948 19.7322C19.7703 19.5598 19.8797 19.3314 19.9041 19.0867C19.9285 18.842 19.8663 18.5964 19.7284 18.3928C19.5348 18.1238 19.1477 17.8974 18.0658 17.4251C16.8174 16.887 16.2793 16.5541 15.7877 16.0238C15.4808 15.6738 15.2542 15.261 15.1238 14.8141C15.0266 14.3036 15.0122 13.7808 15.0813 13.2657C15.3387 12.0599 16.2426 11.218 17.5626 10.9683C18.1739 10.8927 18.7931 10.9096 19.3993 11.0186V11.0148ZM13.7206 12.029V13.0199H10.5793V21.9677H8.35159V13.018H5.20255V12.0503C5.19274 11.7165 5.2005 11.3825 5.22578 11.0496C5.24126 11.0322 7.16126 11.0322 9.48384 11.0322H13.709L13.7206 12.029Z" fill="#007ACC"/>
</g>
<defs>
<clipPath id="clip0_521_788">
<rect width="24" height="24" rx="2" fill="white"/>
</clipPath>
</defs>
</svg>
