<svg viewBox="0 0 24 24" fill="none" xmlns="http://www.w3.org/2000/svg">
<path d="M10.7165 0.0800459C8.80824 0.222314 7.32061 0.472829 5.69071 0.927469C4.69793 1.20273 3.57834 1.5986 2.9134 1.90479L2.68762 2.00994L2.69999 6.29963C2.70927 10.4749 2.71236 10.611 2.78041 11.211C3.01236 13.3264 3.45773 15.0893 4.18762 16.7873C4.24948 16.9295 4.4103 17.2666 4.54329 17.5326C5.98144 20.4027 8.21752 22.4904 11.0722 23.6347C11.8794 23.9594 12 23.9842 12.3093 23.879C12.9866 23.6501 14.0258 23.1677 14.6907 22.7718C15.5629 22.2522 16.2278 21.7233 17.0289 20.9254C17.9505 20.0007 18.6 19.1192 19.2495 17.913C20.3474 15.8749 21.0557 13.246 21.2134 10.6079C21.2289 10.3605 21.2412 8.32541 21.2443 6.08623L21.2474 2.00994L21.0093 1.8986C20.1588 1.50582 18.7454 1.03572 17.4928 0.726438C16.401 0.460458 15.1763 0.256335 13.9484 0.135716C13.4691 0.0893243 11.1464 0.0491181 10.7165 0.0800459ZM8.69071 1.36664C9.06185 1.59242 9.33092 1.67901 10.1289 1.82438C11.1526 2.00994 11.6258 2.18623 11.9041 2.48623L11.9783 2.56355L12.0402 2.48314C12.1206 2.38108 12.3835 2.21407 12.5938 2.13056C12.8783 2.01613 13.1412 1.95118 13.8124 1.82438C14.5701 1.68211 14.8763 1.58932 15.1577 1.41922C15.3835 1.28314 15.467 1.27077 15.5567 1.36046C15.6062 1.40994 15.6185 1.46252 15.6185 1.60788V1.79345L15.767 1.78417L15.9124 1.77798L15.9216 2.01613L15.9309 2.25427L16.0917 2.26355L16.2526 2.27283L16.2618 4.11304C16.268 5.91304 16.268 5.95633 16.2062 6.0553C16.0856 6.25015 15.9835 6.2718 15.0618 6.28726C13.9454 6.30891 13.3113 6.40788 12.7268 6.65221C12.5412 6.72953 12.501 6.75737 12.4701 6.84396C12.4515 6.89963 12.3897 6.97077 12.3371 7.0017C12.2103 7.07592 11.9134 7.10066 11.7371 7.05118C11.5979 7.01097 11.4433 6.87489 11.4433 6.79139C11.4433 6.73881 11.1557 6.612 10.8247 6.51613C10.2618 6.35221 9.5536 6.27798 8.63504 6.27798C8.09999 6.28108 8.05669 6.27798 7.92061 6.20994C7.65772 6.08005 7.6701 6.17283 7.6701 4.13778C7.6701 3.15737 7.67937 2.33469 7.68865 2.30685C7.70102 2.26974 7.75051 2.25737 7.85876 2.25737H8.00721L8.01649 2.01613L8.02577 1.77798L8.17422 1.78417L8.31958 1.79345V1.60788C8.31958 1.31407 8.45876 1.22438 8.69071 1.36664ZM5.7402 2.78005C5.84845 2.85737 5.88247 2.86974 5.95979 2.84809C6.00927 2.83262 6.13608 2.81097 6.24123 2.7986L6.43298 2.77695L6.48247 2.89139C6.50721 2.95324 6.53814 3.08932 6.54742 3.19448C6.56597 3.37386 6.57525 3.39242 6.69278 3.47901C6.87834 3.61819 6.97113 3.80376 6.97113 4.03572C6.97113 4.13778 6.95257 4.2553 6.93092 4.29242C6.8969 4.35737 6.90309 4.39139 7.00205 4.58623C7.16906 4.92953 7.16906 4.92953 7.00515 5.04087C6.92783 5.09345 6.81339 5.1553 6.75154 5.17695C6.65257 5.21097 6.62783 5.2419 6.58144 5.36252C6.47319 5.66871 6.23814 5.84499 5.92886 5.85737C5.77731 5.86355 5.75876 5.87592 5.57319 6.0553C5.46494 6.16046 5.35051 6.24706 5.31958 6.24706C5.28865 6.24706 5.17422 6.16046 5.06597 6.0553C4.8835 5.87283 4.86494 5.86046 4.71339 5.85737C4.5402 5.85118 4.39175 5.78932 4.25876 5.66252C4.15979 5.57283 4.05154 5.38417 4.05154 5.29757C4.04845 5.26046 3.97113 5.20479 3.79484 5.11819C3.48556 4.96664 3.47628 4.93572 3.63401 4.61716C3.73298 4.41613 3.74226 4.37592 3.71443 4.29242C3.69587 4.23984 3.68041 4.11922 3.68041 4.02644C3.68041 3.79757 3.77319 3.60582 3.94329 3.48829C4.067 3.3986 4.07628 3.38623 4.10721 3.17592C4.12267 3.05221 4.1536 2.91304 4.17216 2.86355C4.20618 2.77695 4.20927 2.77695 4.4103 2.7986C4.52164 2.81097 4.65463 2.83262 4.70721 2.84809C4.78762 2.86974 4.81855 2.86046 4.88968 2.8017C5.11546 2.61304 5.48968 2.60376 5.7402 2.78005ZM18.8598 2.69654C18.9155 2.712 18.999 2.7584 19.0484 2.8017C19.135 2.87283 19.1381 2.87283 19.3484 2.82953C19.667 2.76149 19.7289 2.76767 19.766 2.86664C19.7845 2.91613 19.8155 3.05221 19.8309 3.17592C19.8618 3.38623 19.8711 3.3986 19.9948 3.48829C20.2268 3.64912 20.3196 3.98005 20.2237 4.2986C20.1928 4.40066 20.199 4.42541 20.2639 4.53365C20.3041 4.5986 20.3629 4.71613 20.3907 4.79345L20.4464 4.93262L20.3598 5.00066C20.3134 5.04087 20.1866 5.10891 20.0814 5.1553C19.9454 5.21407 19.8866 5.25737 19.8866 5.29757C19.8866 5.38108 19.7783 5.57283 19.6794 5.66252C19.5464 5.78932 19.3979 5.85118 19.2247 5.85737C19.0732 5.86046 19.0546 5.87283 18.8722 6.0553C18.7639 6.16046 18.6495 6.24706 18.6155 6.24706C18.5814 6.24706 18.4639 6.15427 18.3526 6.04293C18.2134 5.90685 18.133 5.84809 18.099 5.86046C18.0124 5.89139 17.734 5.81407 17.6072 5.72128C17.4959 5.63778 17.4093 5.50479 17.3258 5.28829C17.3072 5.23881 17.2546 5.19551 17.1773 5.16767C17.1093 5.14293 16.9979 5.08417 16.9237 5.03469C16.7722 4.92953 16.7722 4.92644 16.9361 4.59242L17.0412 4.37592L16.9917 4.22128C16.9546 4.09448 16.9515 4.03572 16.9794 3.90582C17.0196 3.72334 17.1495 3.52541 17.2825 3.44499C17.3629 3.3986 17.3752 3.37077 17.3938 3.19139C17.4062 3.08314 17.434 2.94396 17.4588 2.88829C17.5082 2.76767 17.5577 2.7584 17.8763 2.82644C18.0742 2.86974 18.0773 2.86974 18.1979 2.78932C18.4082 2.64396 18.5969 2.61613 18.8598 2.69654ZM12.3 8.18623C12.5196 8.40582 12.6897 8.66252 12.7268 8.8419C12.7454 8.93159 12.6959 9.21613 12.6618 9.21613C12.6526 9.21613 12.5969 9.18211 12.532 9.1419C12.3216 9.012 11.9227 8.82025 11.8082 8.7986C11.6907 8.77695 11.5979 8.83572 11.5979 8.93469C11.5979 8.99963 11.7309 9.12953 11.8763 9.20066C12.1268 9.32747 12.4021 9.6151 12.4021 9.75118C12.4021 9.78829 12.3124 10.011 12.2041 10.2522C11.9134 10.8893 11.8639 11.0749 11.8639 11.5048C11.8608 11.8945 11.9041 12.0708 12.068 12.3677C12.1175 12.4574 12.1546 12.5347 12.1484 12.5409C12.1423 12.544 11.9536 12.5563 11.7247 12.5656L11.3103 12.5811L11.0752 12.3398C10.7227 11.9811 10.5402 11.9099 8.92267 11.48C8.66906 11.412 8.38144 11.3254 8.28556 11.2914C7.9237 11.1553 7.69484 10.9357 7.58659 10.6203C7.53092 10.4532 7.45979 10.4069 7.367 10.4718C7.2835 10.5306 7.27422 10.7192 7.34535 10.9172C7.3701 10.9883 7.39175 11.0563 7.39175 11.0625C7.39175 11.0904 7.18453 11.0316 6.95876 10.9388C6.56906 10.778 6.21649 10.3605 6.08041 9.89963C5.99381 9.60891 6.03401 8.90376 6.13917 8.81407C6.18865 8.77386 7.04535 8.56046 7.70102 8.43056C9.04638 8.1584 10.1938 8.03469 11.7866 7.9852L12.0866 7.97592L12.3 8.18623ZM14.1495 8.10273C14.4742 8.13675 14.8887 8.18623 15.0773 8.21716C15.3959 8.26664 15.4206 8.27283 15.5474 8.39036C15.733 8.56046 15.7237 8.60066 15.5041 8.57901C14.9598 8.52334 14.4309 8.7584 14.5825 8.98726C14.6258 9.0553 14.6412 9.0584 15.0371 9.0553C15.4887 9.05221 15.699 9.0986 15.9495 9.25633C16.4103 9.54706 16.5247 10.311 16.1969 10.9295C15.9247 11.446 14.9165 12.1636 14.0412 12.4636C13.7938 12.5501 13.6917 12.5687 13.3917 12.578L13.0361 12.5934L12.8567 12.4481C12.4577 12.1326 12.3216 11.6873 12.4484 11.1429C12.4732 11.0347 12.5938 10.7285 12.7144 10.4625C13.2495 9.28417 13.2495 9.28417 13.2495 9.03056C13.2526 8.82953 13.2371 8.77077 13.1505 8.59139C13.0948 8.47695 12.9804 8.30994 12.8969 8.21716C12.8103 8.12438 12.7423 8.03778 12.7423 8.02541C12.7423 7.99139 13.4536 8.03159 14.1495 8.10273ZM16.6639 8.50479C17.6536 8.72438 18.6433 9.00891 19.4814 9.312C19.7629 9.41407 20.0412 9.51304 20.0938 9.53159C20.1495 9.55015 20.2021 9.59036 20.2113 9.61819C20.233 9.68932 20.1742 10.7811 20.1185 11.3347C19.9299 13.1532 19.4691 14.9656 18.8134 16.4532C17.6412 19.1099 15.8598 21.0429 13.4691 22.2522C12.9185 22.5306 12.1299 22.8553 12.0062 22.8553C11.9629 22.8553 11.7309 22.778 11.4928 22.6821C8.94741 21.6584 7.00824 19.9203 5.65979 17.4429C4.52164 15.3584 3.8103 12.578 3.73298 9.90582L3.7237 9.58726L4.00515 9.47901C4.15979 9.42025 4.30205 9.37077 4.32061 9.37077C4.33608 9.37077 4.37628 9.43572 4.40721 9.51304C4.55566 9.90582 5.09071 10.4904 5.61339 10.8398C6.14535 11.1924 6.75772 11.4708 7.4536 11.6749C7.64845 11.7306 8.03195 11.8419 8.30412 11.9223C10.299 12.5038 10.3299 12.513 10.5093 12.6646C10.7381 12.8563 10.7938 13.1904 10.667 13.58C10.568 13.8677 10.5495 13.8831 10.4629 13.7254C10.3577 13.5367 10.1907 13.3728 9.95875 13.2244C9.69587 13.0512 9.57525 12.9986 9.28762 12.9244C8.84535 12.8099 7.91133 12.8161 7.69175 12.9337C7.63607 12.9615 7.63917 12.9708 7.72577 13.0605C7.77834 13.1161 7.8835 13.3017 7.95772 13.4718C8.20824 14.0501 8.48659 14.3563 8.98453 14.6068C9.29999 14.7646 9.56288 14.8233 9.89999 14.8079C10.067 14.8017 10.2062 14.8048 10.2062 14.8141C10.2062 14.8233 10.1691 14.8914 10.1258 14.9687C9.95875 15.2563 9.52577 16.144 9.37422 16.5058C8.91649 17.6068 8.60721 18.8099 8.54845 19.7471L8.5268 20.0625L8.78659 20.279C9.35566 20.7522 9.87834 21.111 10.5 21.4574C10.8649 21.6584 11.5237 21.9677 11.833 22.079L12.0216 22.1501L12.3618 22.011C13.5185 21.5347 14.5423 20.8945 15.4763 20.0594C15.668 19.8862 15.7361 19.8089 15.7082 19.7934C15.6835 19.7811 15.5041 19.7625 15.3093 19.7501C14.8175 19.7223 14.4185 19.6543 14.0876 19.5429C13.633 19.3914 13.3454 19.1656 13.1814 18.8347C13.0763 18.6182 13.0484 18.1821 13.1258 17.8883C13.1907 17.6409 13.1907 17.5172 13.1258 17.4924C13.0608 17.4677 12.7917 17.5914 12.5258 17.7677C11.7278 18.2965 11.032 19.3264 10.6051 20.5976C10.5216 20.845 10.4536 21.0708 10.4536 21.0986C10.4536 21.1264 10.4381 21.1605 10.4196 21.1728C10.3423 21.2192 10.4567 20.3532 10.599 19.8089C10.9206 18.5749 11.5825 17.6254 12.6 16.9419C13.3206 16.4625 13.9856 16.2584 14.6722 16.3141C15.1206 16.3512 15.2505 16.345 15.3618 16.2862C15.4917 16.2213 15.5412 16.1409 15.6 15.9182C15.6309 15.7976 15.6835 15.6955 15.7546 15.6151C15.9866 15.3615 16.1412 14.9161 16.0979 14.6347C16.0577 14.3718 15.9433 14.3068 15.0155 14.013C14.5794 13.8739 14.4618 13.7996 14.366 13.5924C14.3134 13.4842 14.2175 13.3636 14.0969 13.2553C13.9763 13.144 13.9237 13.079 13.9515 13.0697C14.6691 12.8532 15.2072 12.5749 15.8474 12.0955C16.1876 11.8388 16.4536 11.5636 16.6515 11.2666C16.7845 11.0625 16.9299 10.9172 17.001 10.9172C17.0567 10.9172 17.3289 10.7069 17.3845 10.6172C17.4557 10.512 17.4618 10.3512 17.3938 10.2955C17.3567 10.2646 17.3134 10.2646 17.1866 10.2924C17.0969 10.3141 17.0072 10.3326 16.9856 10.3388C16.9577 10.3419 16.9423 10.277 16.933 10.1099C16.9021 9.59654 16.7196 9.12953 16.3763 8.6718C16.268 8.52953 16.1907 8.412 16.2093 8.412C16.2247 8.412 16.4289 8.4553 16.6639 8.50479ZM5.59484 9.11407C5.56082 9.33056 5.56082 9.8285 5.60102 10.0326C5.61958 10.1316 5.62577 10.2182 5.61958 10.2275C5.59175 10.2522 5.27319 9.97077 5.12783 9.78829C4.97319 9.59963 4.76597 9.23159 4.7969 9.20376C4.82164 9.17901 5.57937 8.94706 5.60102 8.95633C5.6103 8.96252 5.60721 9.03365 5.59484 9.11407Z" fill="#005C84"/>
<path d="M8.54226 3.62485L8.55154 5.70629L8.65978 5.75887C8.78659 5.82073 8.9938 5.85475 9.61855 5.92279C10.7412 6.04341 11.3505 6.19495 11.6536 6.42073L11.7526 6.49805V4.56815V2.63825L11.6845 2.5733C11.4773 2.38464 10.9113 2.19598 10.1134 2.05681C9.31236 1.91454 8.96597 1.80939 8.6505 1.61763L8.53607 1.5465L8.54226 3.62485Z" fill="#005C84"/>
<path d="M15.3649 1.56441C15.3278 1.62008 14.9134 1.80874 14.6752 1.87987C14.5546 1.91698 14.1773 1.9943 13.834 2.05616C13.0144 2.19843 12.467 2.3809 12.2567 2.57575L12.1855 2.6376V4.56441V6.49121L12.3185 6.40461C12.6897 6.16028 13.1505 6.05513 14.5825 5.89121C15.0495 5.83863 15.3124 5.77678 15.368 5.70874C15.3928 5.67781 15.3989 5.11183 15.3959 3.59946C15.3897 2.46131 15.3773 1.54585 15.3649 1.56441Z" fill="#005C84"/>
<path d="M5.30411 2.86383C5.28865 2.86692 5.23607 2.87929 5.18968 2.88857C5.08143 2.91331 4.92061 3.04939 4.8804 3.15146C4.81545 3.32156 4.84329 3.49166 4.967 3.67104C5.0536 3.79475 5.0969 3.83496 5.14638 3.82878C5.18968 3.82259 5.21442 3.79475 5.22061 3.74218C5.24226 3.55661 5.25772 3.52259 5.32886 3.53187C5.38453 3.53805 5.39999 3.56589 5.40618 3.66486C5.41545 3.78548 5.45257 3.83496 5.52679 3.83496C5.58865 3.83496 5.7804 3.54115 5.80205 3.40816C5.82679 3.25352 5.73092 3.03393 5.60721 2.95042C5.5237 2.89785 5.35978 2.84836 5.30411 2.86383Z" fill="#005C84"/>
<path d="M4.31753 3.02439C4.31135 3.05222 4.29588 3.13263 4.28351 3.20377L4.26495 3.33057L4.44434 3.34913C4.54021 3.35841 4.62372 3.36459 4.62681 3.3615C4.6299 3.35841 4.63918 3.28109 4.64846 3.19449C4.67011 3.01511 4.68248 3.03057 4.43196 2.98727C4.35774 2.9749 4.3299 2.98418 4.31753 3.02439Z" fill="#005C84"/>
<path d="M6.12679 3.00224C6.05256 3.0177 5.98761 3.03317 5.98452 3.03626C5.97833 3.04245 5.9907 3.11667 6.00926 3.20636L6.04328 3.36719L6.19792 3.34863C6.28452 3.33935 6.36184 3.32698 6.36802 3.3208C6.39277 3.29915 6.32473 2.98987 6.2938 2.98059C6.27833 2.9775 6.20101 2.98678 6.12679 3.00224Z" fill="#005C84"/>
<path d="M4.13197 3.62723C3.82888 3.80043 3.8196 4.24888 4.11032 4.44373C4.23713 4.53033 4.39795 4.53651 4.62991 4.46228C4.7629 4.42208 4.79383 4.39734 4.79383 4.34476C4.79383 4.29527 4.7629 4.26435 4.67012 4.22723C4.58352 4.19321 4.5464 4.16228 4.5464 4.11589C4.5464 4.02929 4.5928 4.01074 4.7196 4.05094C4.81238 4.08187 4.84022 4.08187 4.87733 4.04167C4.92063 3.99837 4.91135 3.97672 4.8062 3.82517C4.61754 3.5561 4.37939 3.48496 4.13197 3.62723Z" fill="#005C84"/>
<path d="M6.06492 3.60893C6.00616 3.63986 5.90719 3.73574 5.84224 3.81924C5.74018 3.96151 5.734 3.98316 5.77111 4.03574C5.81132 4.08832 5.82678 4.09141 5.92575 4.05429C6.02162 4.02027 6.04327 4.02027 6.08348 4.06048C6.15152 4.12852 6.11441 4.19966 5.99379 4.23058C5.91647 4.24914 5.88863 4.27388 5.88245 4.33574C5.87317 4.40378 5.89173 4.41924 6.02781 4.46564C6.31235 4.55842 6.50101 4.51821 6.65565 4.33265C6.77317 4.19656 6.79173 4.011 6.70513 3.84089C6.66492 3.76357 6.59688 3.67079 6.55049 3.63986C6.43296 3.55326 6.19791 3.5378 6.06492 3.60893Z" fill="#005C84"/>
<path d="M5.1 4.0293C4.95155 4.12827 4.88969 4.31075 4.95155 4.47157C5.05051 4.73136 5.37526 4.81796 5.57938 4.63549C5.76495 4.47466 5.76804 4.2458 5.58247 4.06023C5.49897 3.97672 5.45876 3.95817 5.34124 3.95817C5.25155 3.95817 5.17113 3.98291 5.1 4.0293Z" fill="#005C84"/>
<path d="M3.79175 4.70658C3.71443 4.86431 3.71443 4.8674 3.77319 4.90761C3.80721 4.93235 3.88144 4.96946 3.94329 4.9973C4.02989 5.03132 4.05154 5.03441 4.05154 5.00039C4.05154 4.97874 4.07938 4.90761 4.1134 4.83957C4.18762 4.6973 4.18453 4.70039 4.13505 4.70039C4.1134 4.70039 4.04536 4.66637 3.9835 4.62307L3.87216 4.54575L3.79175 4.70658Z" fill="#005C84"/>
<path d="M6.71135 4.59256C6.6897 4.6173 6.62785 4.65442 6.57218 4.67607C6.47011 4.71009 6.47011 4.71318 6.51032 4.7905C6.53506 4.8338 6.56908 4.90803 6.58764 4.95751L6.61857 5.04102L6.77321 4.9637C6.85671 4.9204 6.92785 4.8771 6.92785 4.87091C6.92785 4.83998 6.79486 4.5771 6.77321 4.56163C6.76084 4.55236 6.733 4.56782 6.71135 4.59256Z" fill="#005C84"/>
<path d="M4.63915 4.68557C4.33297 4.8 4.19688 5.02268 4.26802 5.28557C4.30822 5.43402 4.50926 5.62887 4.63297 5.63196C5.03812 5.64742 5.23915 5.45258 5.2206 5.06289C5.21132 4.89278 5.20513 4.87113 5.14328 4.86186C5.09688 4.85567 5.05359 4.88351 5.00719 4.94536C4.92987 5.05052 4.88348 5.06289 4.82472 4.99485C4.79379 4.95773 4.79998 4.9299 4.85565 4.8433C4.90822 4.7567 4.91441 4.72268 4.88657 4.6701C4.86802 4.63608 4.84946 4.60825 4.84637 4.61134C4.84328 4.61134 4.75049 4.64536 4.63915 4.68557Z" fill="#005C84"/>
<path d="M5.75564 4.67572C5.72471 4.7252 5.7309 4.74994 5.78347 4.82108C5.91646 5.00974 5.80512 5.12108 5.65358 4.95097C5.51131 4.79015 5.46183 4.82726 5.44945 5.10561C5.44018 5.32211 5.44636 5.34994 5.52368 5.43963C5.68451 5.63139 5.9443 5.69015 6.15152 5.5819C6.33708 5.48912 6.43914 5.22314 6.37729 5.01283C6.3278 4.85819 6.20409 4.74994 5.98141 4.67881C5.79585 4.61695 5.79275 4.61695 5.75564 4.67572Z" fill="#005C84"/>
<path d="M5.24223 5.63749C5.20821 5.6777 5.15254 5.72409 5.11852 5.74574C5.05976 5.77667 5.06285 5.78594 5.18038 5.90347C5.24533 5.9746 5.31027 6.03027 5.31955 6.03027C5.34429 6.03027 5.47728 5.90965 5.53295 5.83852C5.56388 5.79522 5.5546 5.77048 5.45254 5.6777C5.38759 5.61584 5.32883 5.56945 5.31955 5.56636C5.31027 5.56636 5.27625 5.60038 5.24223 5.63749Z" fill="#005C84"/>
<path d="M18.3711 2.93496C18.2196 3.01537 18.1144 3.22259 18.1361 3.39888C18.1546 3.53805 18.3433 3.83496 18.4113 3.83496C18.4855 3.83496 18.5227 3.78548 18.5319 3.66486C18.5412 3.55661 18.5505 3.54115 18.6185 3.54115C18.6866 3.54115 18.699 3.55661 18.7113 3.68032C18.7237 3.79166 18.7392 3.82259 18.7917 3.82878C18.8721 3.84115 19.0701 3.56589 19.0979 3.40197C19.1227 3.2597 19.0113 3.04012 18.8691 2.94733C18.7361 2.85764 18.5227 2.85455 18.3711 2.93496Z" fill="#005C84"/>
<path d="M17.6196 2.99009C17.6103 3.00555 17.5918 3.09215 17.5794 3.17875L17.5577 3.33958H17.6629C17.7217 3.33958 17.7959 3.34885 17.8299 3.35813C17.8825 3.3705 17.8979 3.35195 17.9289 3.21277C17.9722 3.0303 17.9567 2.99937 17.8083 2.99937C17.765 2.99937 17.7062 2.99009 17.6815 2.98081C17.6567 2.97153 17.6289 2.97772 17.6196 2.99009Z" fill="#005C84"/>
<path d="M19.4319 2.9969C19.3577 3.00927 19.2928 3.02783 19.2835 3.03711C19.2742 3.04639 19.2835 3.12371 19.3051 3.2134C19.3361 3.35567 19.3484 3.37422 19.4041 3.35876C19.4412 3.34948 19.5154 3.3402 19.5742 3.3402H19.6763L19.6546 3.19793C19.6299 3.03092 19.6082 2.96598 19.5804 2.97216C19.5711 2.97525 19.5031 2.98763 19.4319 2.9969Z" fill="#005C84"/>
<path d="M17.4495 3.60878C17.2639 3.69847 17.1402 3.94589 17.1835 4.13455C17.2113 4.25517 17.335 4.4129 17.4433 4.46857C17.635 4.56754 18.0433 4.48404 18.0711 4.34177C18.0835 4.27682 18.068 4.26136 17.966 4.23352C17.8361 4.19331 17.7897 4.12527 17.8515 4.06033C17.8856 4.0294 17.9165 4.0294 18.0124 4.05723C18.1175 4.09125 18.1361 4.08816 18.1732 4.03558C18.2103 3.9861 18.2041 3.96136 18.1113 3.83764C17.9134 3.56548 17.6907 3.48816 17.4495 3.60878Z" fill="#005C84"/>
<path d="M19.3299 3.62476C19.2711 3.66497 19.1783 3.76084 19.1227 3.83816C19.0361 3.96188 19.0268 3.98662 19.0639 4.0361C19.0979 4.08559 19.1165 4.08559 19.2216 4.05157C19.3268 4.01755 19.3454 4.01755 19.3794 4.06703C19.435 4.14435 19.4041 4.19383 19.2649 4.23404C19.1722 4.26188 19.1443 4.28662 19.1443 4.34229C19.1443 4.39796 19.1722 4.41961 19.3082 4.46291C19.5278 4.53095 19.6948 4.52786 19.8185 4.45363C20.134 4.26188 20.1124 3.76394 19.7845 3.60621C19.6299 3.53507 19.4536 3.54435 19.3299 3.62476Z" fill="#005C84"/>
<path d="M18.3897 4.02376C18.2165 4.15984 18.1732 4.36396 18.2783 4.53716C18.3711 4.6918 18.4701 4.74128 18.6495 4.72582C19.1474 4.67633 19.1196 3.95881 18.6216 3.95881C18.5165 3.95881 18.4484 3.97736 18.3897 4.02376Z" fill="#005C84"/>
<path d="M17.1093 4.65088C16.9918 4.84882 16.9949 4.87665 17.1309 4.94779C17.301 5.03438 17.3258 5.0282 17.3938 4.87665C17.4278 4.80552 17.4619 4.73748 17.468 4.72201C17.4742 4.70964 17.4619 4.70036 17.4371 4.70036C17.4155 4.70036 17.3443 4.66634 17.2825 4.62304L17.1711 4.54572L17.1093 4.65088Z" fill="#005C84"/>
<path d="M19.9484 4.62349C19.8897 4.66679 19.8247 4.70081 19.8031 4.70081C19.7567 4.70081 19.7505 4.73792 19.7938 4.78122C19.8093 4.79669 19.8402 4.86163 19.8618 4.92349L19.902 5.04102L20.066 4.9637C20.1526 4.92349 20.2268 4.88019 20.2268 4.87091C20.2268 4.84926 20.0752 4.54617 20.0629 4.54617C20.0598 4.54926 20.0072 4.58328 19.9484 4.62349Z" fill="#005C84"/>
<path d="M17.9443 4.68546C17.7062 4.77205 17.6196 4.84937 17.5701 5.01329C17.5051 5.22669 17.5886 5.45556 17.768 5.5669C17.8608 5.62257 17.9134 5.63494 18.0649 5.62257C18.2288 5.6102 18.2629 5.59473 18.3649 5.49577C18.4763 5.38443 18.4794 5.37205 18.4917 5.11845C18.501 4.86793 18.4979 4.85556 18.4361 4.85556C18.3989 4.85556 18.3309 4.89886 18.2814 4.95453C18.133 5.12154 18.0247 5.0102 18.1577 4.82154C18.2103 4.74422 18.2134 4.72257 18.1794 4.67308C18.1392 4.61741 18.133 4.61741 17.9443 4.68546Z" fill="#005C84"/>
<path d="M19.0485 4.6724C19.0237 4.72188 19.033 4.7559 19.0825 4.8425C19.1381 4.9291 19.1443 4.95693 19.1134 4.99405C19.0546 5.06209 19.0082 5.04972 18.9309 4.94456C18.8845 4.88271 18.8412 4.85487 18.7948 4.86106C18.7361 4.87034 18.7268 4.89199 18.7175 5.04972C18.7021 5.36209 18.8784 5.60951 19.1289 5.63116C19.3423 5.64663 19.3979 5.62807 19.5309 5.49508C19.701 5.32807 19.7351 5.17034 19.6454 4.96931C19.5742 4.80848 19.5062 4.7559 19.2588 4.6724C19.0825 4.61054 19.0825 4.61054 19.0485 4.6724Z" fill="#005C84"/>
<path d="M18.4856 5.67509C18.3588 5.79571 18.3618 5.82973 18.5319 5.96581L18.6247 6.04004L18.7484 5.91633L18.8722 5.78952L18.7546 5.67818C18.6866 5.61942 18.6278 5.56994 18.6185 5.56994C18.6093 5.56994 18.5505 5.61633 18.4856 5.67509Z" fill="#005C84"/>
</svg>
