<svg width="24" height="24" viewBox="0 0 24 24" fill="none" xmlns="http://www.w3.org/2000/svg">
<g clip-path="url(#clip0_523_1174)">
<path d="M18.0109 7.65419L12.2734 15.9499C12.2278 16.0158 12.167 16.0695 12.0961 16.1066C12.0252 16.1437 11.9463 16.1631 11.8662 16.1629C11.7862 16.1628 11.7074 16.1432 11.6366 16.1059C11.5658 16.0686 11.5051 16.0146 11.4598 15.9486C11.3996 15.8605 11.3699 15.755 11.3752 15.6484L11.6049 11.0682L7.89768 10.2822C7.81867 10.2654 7.74501 10.2294 7.68318 10.1774C7.62135 10.1254 7.57325 10.059 7.54312 9.98406C7.51313 9.90912 7.50219 9.82792 7.51129 9.74771C7.52039 9.66751 7.54923 9.59082 7.59524 9.5245L13.3327 1.22875C13.3937 1.14049 13.4817 1.07448 13.5835 1.04072C13.6853 1.00695 13.7953 1.00727 13.8969 1.04162C13.9983 1.07562 14.0859 1.14178 14.1463 1.23006C14.2067 1.31819 14.2363 1.42356 14.2309 1.53025L14.0014 6.1105L17.7082 6.8965C17.7876 6.91337 17.8614 6.94938 17.9233 7.0015C18.0166 7.07976 18.0773 7.19007 18.0935 7.31078C18.1097 7.43149 18.0803 7.55409 18.0109 7.65419Z" fill="#FCC72B"/>
<path d="M12.0024 22.91C11.8499 22.91 11.6987 22.88 11.5577 22.8216C11.4168 22.7632 11.2887 22.6776 11.1808 22.5696L5.75945 17.1486C5.59764 16.9861 5.48759 16.7792 5.44318 16.5541C5.39877 16.3291 5.42199 16.0959 5.5099 15.8841C5.59782 15.6722 5.7465 15.4911 5.9372 15.3636C6.12789 15.2361 6.35206 15.168 6.58145 15.1677C6.88903 15.1673 7.18422 15.2889 7.40232 15.5058L12.0024 20.1051L22.0236 10.0844C22.2414 9.86653 22.5369 9.74414 22.845 9.74414C23.1531 9.74414 23.4486 9.86653 23.6665 10.0844C23.8843 10.3023 24.0067 10.5977 24.0067 10.9058C24.0067 11.2139 23.8843 11.5094 23.6665 11.7273L12.8237 22.5696C12.716 22.6777 12.588 22.7634 12.447 22.8218C12.3061 22.8802 12.155 22.9101 12.0024 22.91Z" fill="#729B1B"/>
<path d="M11.9978 22.9093C12.1504 22.9093 12.3015 22.8795 12.4423 22.8212C12.5833 22.7627 12.7114 22.6771 12.8192 22.569L18.2406 17.148C18.4576 16.93 18.5792 16.6348 18.5788 16.3273C18.5784 16.0197 18.4559 15.7248 18.2383 15.5074C18.0208 15.29 17.726 15.1677 17.4185 15.1673C17.1109 15.1668 16.8158 15.2883 16.5977 15.5052L11.9978 20.1045L1.97626 10.0838C1.75764 9.86963 1.46334 9.75039 1.15731 9.75197C0.851275 9.75355 0.558226 9.87582 0.341825 10.0922C0.125424 10.3086 0.00315211 10.6017 0.0015719 10.9077C-8.29692e-06 11.2137 0.119231 11.508 0.333386 11.7267L11.1761 22.569C11.2839 22.6771 11.4119 22.7627 11.5528 22.8211C11.6937 22.8795 11.8448 22.9095 11.9974 22.9093H11.9978Z" fill="#729B1B" fill-opacity="0.5"/>
</g>
<defs>
<clipPath id="clip0_523_1174">
<rect width="24" height="24" fill="white"/>
</clipPath>
</defs>
</svg>
